<svg width="48" height="50" viewBox="0 0 48 50" fill="none" xmlns="http://www.w3.org/2000/svg">
<path d="M0 24C0 10.7452 10.7452 0 24 0C37.2548 0 48 10.7452 48 24V25.0213C48 38.2761 37.2548 49.0213 24 49.0213C10.7452 49.0213 0 38.2761 0 25.0213V24Z" fill="#000D21"/>
<rect x="10" y="24.4514" width="2.29033" height="8.39788" rx="1.14517" fill="white"/>
<rect x="35.957" y="24.4514" width="2.29033" height="8.39788" rx="1.14517" fill="white"/>
<path fill-rule="evenodd" clip-rule="evenodd" d="M26.7955 15.2903C26.7955 16.2874 26.1584 17.1356 25.2691 17.4502V20.6348H30.4386C33.0647 20.6348 35.1936 22.7637 35.1936 25.3898V31.9122C35.1936 34.5383 33.0647 36.6672 30.4386 36.6672H17.8087C15.1826 36.6672 13.0537 34.5383 13.0537 31.9122V25.3898C13.0537 22.7637 15.1826 20.6348 17.8087 20.6348H23.7423V17.4505C22.8524 17.1362 22.2149 16.2877 22.2149 15.2903C22.2149 14.0254 23.2403 13 24.5052 13C25.7701 13 26.7955 14.0254 26.7955 15.2903ZM21.4524 26.743C21.4524 28.0079 20.427 29.0334 19.1621 29.0334C17.8972 29.0334 16.8717 28.0079 16.8717 26.743C16.8717 25.4781 17.8972 24.4527 19.1621 24.4527C20.427 24.4527 21.4524 25.4781 21.4524 26.743ZM29.8483 29.0333C31.1132 29.0333 32.1386 28.0078 32.1386 26.7429C32.1386 25.478 31.1132 24.4526 29.8483 24.4526C28.5833 24.4526 27.5579 25.478 27.5579 26.7429C27.5579 28.0078 28.5833 29.0333 29.8483 29.0333ZM20.9484 30.7485C21.266 30.4706 21.7488 30.5028 22.0267 30.8204C22.3952 31.2415 23.0543 31.7322 23.7958 31.8702C24.4698 31.9956 25.317 31.8531 26.2206 30.8204C26.4985 30.5028 26.9813 30.4706 27.2989 30.7485C27.6165 31.0265 27.6487 31.5092 27.3708 31.8269C26.1367 33.2372 24.7573 33.6037 23.5163 33.3728C22.3428 33.1545 21.3987 32.4237 20.8765 31.8269C20.5985 31.5092 20.6307 31.0265 20.9484 30.7485Z" fill="white"/>
</svg>
