<svg width="40" height="41" viewBox="0 0 40 41" fill="none" xmlns="http://www.w3.org/2000/svg">
<path d="M0 20C0 8.9543 8.95431 0 20 0C31.0457 0 40 8.9543 40 20V20.8511C40 31.8968 31.0457 40.8511 20 40.8511C8.95431 40.8511 0 31.8968 0 20.8511V20Z" fill="#000D21"/>
<path fill-rule="evenodd" clip-rule="evenodd" d="M29.6363 19.2809H24.4358C24.2689 19.2809 24.1244 19.166 24.0857 19.0036C23.7209 17.4744 22.5121 16.2694 20.9807 15.91C20.8177 15.8717 20.7021 15.727 20.7021 15.5596V10.361C20.7021 10.1463 20.8887 9.98021 21.1021 10.0028C23.3737 10.2435 25.4787 11.2443 27.117 12.8822C28.7507 14.5163 29.7508 16.6153 29.9945 18.8804C30.0174 19.0941 29.8512 19.2809 29.6363 19.2809ZM29.9982 21.0314C29.7979 22.9504 29.0551 24.751 27.8445 26.252C27.7095 26.4192 27.4599 26.4339 27.308 26.282L24.3965 23.3705L23.6304 22.6044C23.5119 22.4858 23.4918 22.3018 23.5799 22.1591C23.8144 21.7794 23.9897 21.3595 24.0929 20.9122C24.1307 20.7484 24.2756 20.6318 24.4438 20.6318H29.64C29.8545 20.6318 30.0205 20.818 29.9982 21.0314ZM26.325 27.7751C26.4917 27.6401 26.5061 27.391 26.3543 27.2392L22.6784 23.5635C22.5594 23.4444 22.3744 23.4247 22.2316 23.5139C21.5914 23.914 20.8357 24.1457 20.0266 24.1457C17.7257 24.1457 15.8538 22.2734 15.8538 19.9728C15.8538 18 17.2295 16.3433 19.0719 15.9105C19.2352 15.8721 19.3513 15.7276 19.3513 15.5598V10.3613C19.3513 10.147 19.1652 9.98048 18.9521 10.003C16.6802 10.2436 14.5749 11.2444 12.9369 12.8825C11.0472 14.7721 9.98834 17.3459 10.0001 20.0182C10.0118 22.6791 11.0536 25.1794 12.9369 27.0626C14.8308 28.9561 17.3488 29.9994 20.0267 29.9994C22.3473 29.9994 24.547 29.2158 26.325 27.7751Z" fill="url(#paint0_linear_188_983)"/>
<defs>
<linearGradient id="paint0_linear_188_983" x1="9.99989" y1="20.0006" x2="30.0002" y2="20.0006" gradientUnits="userSpaceOnUse">
<stop stop-color="#E8F8FF"/>
<stop offset="1" stop-color="#95DDFF"/>
</linearGradient>
</defs>
</svg>
