<svg width="125" height="36" viewBox="0 0 125 36" fill="none" xmlns="http://www.w3.org/2000/svg">
    <path d="M123.923 31.848c0 1.919-1.587 3.473-3.549 3.473H4.246c-1.962 0-3.554-1.554-3.554-3.473V4.156C.692 2.24 2.284.68 4.246.68h116.127c1.963 0 3.549 1.56 3.549 3.477l.001 27.692z" fill="#000"/>
    <path d="M120 .721c2.137 0 3.875 1.696 3.875 3.78V31.5c0 2.084-1.738 3.779-3.875 3.779H4.615C2.478 35.279.74 33.583.74 31.5v-27C.74 2.417 2.478.721 4.615.721H120zm0-.72H4.615C2.078 0 0 2.025 0 4.5V31.5C0 33.974 2.078 36 4.615 36H120c2.537 0 4.615-2.026 4.615-4.5v-27c0-2.474-2.078-4.5-4.615-4.5z" fill="#A6A6A6"/>
    <path d="M27.81 17.805c-.027-2.9 2.436-4.311 2.549-4.377-1.395-1.983-3.557-2.254-4.317-2.275-1.815-.187-3.577 1.059-4.501 1.059-.944 0-2.368-1.041-3.903-1.01-1.976.029-3.824 1.144-4.837 2.876-2.092 3.53-.532 8.719 1.472 11.573 1.003 1.398 2.174 2.958 3.707 2.903 1.5-.06 2.06-.932 3.87-.932 1.794 0 2.32.932 3.884.897 1.61-.025 2.623-1.404 3.59-2.814 1.16-1.602 1.625-3.18 1.643-3.26-.038-.014-3.126-1.163-3.157-4.64zM24.856 9.275c.807-.983 1.36-2.322 1.206-3.68-1.168.05-2.628.788-3.47 1.75-.743.848-1.408 2.237-1.236 3.544 1.312.095 2.658-.645 3.5-1.614zM45.277 9.008c0 1.06-.326 1.857-.977 2.392-.602.494-1.459.742-2.569.742-.55 0-1.02-.024-1.415-.07V6.283a10.705 10.705 0 0 1 1.667-.123c1.056 0 1.853.224 2.39.672.602.507.904 1.232.904 2.175zm-1.02.026c0-.687-.186-1.213-.56-1.58-.372-.367-.917-.55-1.634-.55-.305 0-.564.02-.78.06v4.4c.12.019.338.027.654.027.74 0 1.312-.2 1.715-.602.402-.402.605-.986.605-1.755zM50.686 9.933c0 .653-.191 1.187-.574 1.607-.4.43-.93.646-1.594.646-.639 0-1.147-.206-1.526-.62-.379-.413-.568-.934-.568-1.563 0-.656.195-1.196.586-1.614.391-.419.918-.628 1.58-.628.64 0 1.152.206 1.54.619.37.401.556.92.556 1.553zm-1.004.03c0-.39-.087-.726-.26-1.006-.202-.339-.491-.508-.867-.508-.388 0-.684.17-.887.508-.173.28-.26.62-.26 1.024 0 .392.087.727.26 1.007.21.338.501.508.878.508.37 0 .66-.172.868-.517.179-.285.268-.624.268-1.015zM57.937 7.847l-1.361 4.243h-.886l-.564-1.842c-.143-.46-.26-.918-.35-1.371h-.018c-.084.466-.2.922-.35 1.37l-.599 1.843h-.896l-1.28-4.243h.994l.492 2.017c.119.477.217.932.295 1.362h.018c.072-.355.191-.807.359-1.353l.617-2.025h.789l.591 1.982c.144.483.26.948.35 1.397h.026c.066-.437.164-.902.296-1.397l.528-1.982h.95zM62.952 12.09h-.968V9.66c0-.75-.291-1.124-.877-1.124a.882.882 0 0 0-.698.309c-.178.206-.269.45-.269.727v2.517h-.967v-3.03c0-.372-.012-.776-.035-1.214h.85l.045.663h.027c.112-.206.28-.376.501-.512.262-.158.556-.238.877-.238.406 0 .744.128 1.013.384.334.314.5.783.5 1.406v2.541zM65.62 12.09h-.967V5.9h.967v6.19zM71.316 9.933c0 .653-.192 1.187-.574 1.607-.4.43-.932.646-1.594.646-.64 0-1.148-.206-1.527-.62-.378-.413-.567-.934-.567-1.563 0-.656.195-1.196.586-1.614.391-.419.917-.628 1.58-.628.639 0 1.151.206 1.54.619.37.401.556.92.556 1.553zm-1.005.03c0-.39-.087-.726-.26-1.006-.201-.339-.491-.508-.866-.508-.39 0-.685.17-.887.508-.174.28-.26.62-.26 1.024 0 .392.087.727.26 1.007.21.338.501.508.878.508.37 0 .658-.172.867-.517.18-.285.268-.624.268-1.015zM75.997 12.09h-.868l-.073-.489h-.026c-.297.39-.721.585-1.271.585-.411 0-.743-.129-.994-.384a1.188 1.188 0 0 1-.34-.864c0-.519.221-.914.667-1.187.445-.274 1.071-.408 1.877-.402V9.27c0-.559-.301-.838-.904-.838-.43 0-.808.105-1.134.314l-.197-.619c.404-.244.904-.366 1.493-.366 1.137 0 1.707.585 1.707 1.755v1.562c0 .424.022.761.063 1.012zm-1.004-1.458v-.655c-1.067-.018-1.6.268-1.6.855 0 .222.06.387.185.498.124.11.283.166.472.166.213 0 .411-.066.592-.197a.802.802 0 0 0 .35-.667zM81.494 12.09h-.859l-.045-.682h-.027c-.274.519-.741.778-1.397.778-.525 0-.961-.2-1.307-.602-.346-.402-.52-.923-.52-1.563 0-.686.188-1.242.565-1.667a1.754 1.754 0 0 1 1.343-.594c.584 0 .993.191 1.226.576h.018V5.9h.969v5.047c0 .413.01.794.034 1.143zM80.49 10.3v-.707a1.069 1.069 0 0 0-.377-.869.965.965 0 0 0-.647-.23c-.36 0-.643.139-.85.419-.206.28-.31.637-.31 1.073 0 .42.098.76.296 1.022.21.279.493.418.846.418a.942.942 0 0 0 .764-.349c.187-.215.278-.474.278-.777zM89.768 9.933c0 .653-.191 1.187-.573 1.607-.401.43-.931.646-1.595.646-.637 0-1.146-.206-1.526-.62-.379-.413-.568-.934-.568-1.563 0-.656.195-1.196.586-1.614.391-.419.918-.628 1.581-.628.638 0 1.152.206 1.54.619.37.401.555.92.555 1.553zm-1.003.03c0-.39-.087-.726-.26-1.006-.203-.339-.491-.508-.868-.508-.388 0-.683.17-.887.508-.173.28-.26.62-.26 1.024 0 .392.088.727.26 1.007.21.338.501.508.878.508.37 0 .66-.172.869-.517.178-.285.268-.624.268-1.015zM94.969 12.09h-.967V9.66c0-.75-.292-1.124-.878-1.124a.88.88 0 0 0-.698.309c-.179.206-.268.45-.268.727v2.517h-.969v-3.03c0-.372-.01-.776-.034-1.214h.85l.045.663h.026c.114-.206.282-.376.502-.512a1.67 1.67 0 0 1 .878-.238c.405 0 .743.128 1.011.384.335.314.502.783.502 1.406v2.541zM101.479 8.554h-1.065v2.06c0 .524.189.786.564.786.174 0 .318-.014.431-.044l.025.716c-.191.07-.442.105-.751.105-.383 0-.68-.113-.895-.34-.216-.227-.323-.609-.323-1.144v-2.14h-.636v-.706h.636V7.07l.948-.28v1.056h1.065v.708h.001zM106.6 12.09h-.968V9.678c0-.76-.292-1.142-.876-1.142-.449 0-.755.221-.923.662a1.145 1.145 0 0 0-.045.34v2.55h-.967V5.9h.967v2.557h.018c.305-.465.741-.697 1.307-.697.401 0 .732.128.995.384.328.32.492.795.492 1.423v2.523zM111.883 9.768c0 .169-.013.31-.036.427h-2.901c.013.42.151.739.42.96.246.198.562.297.95.297.429 0 .82-.066 1.173-.2l.151.655c-.412.174-.898.262-1.46.262-.674 0-1.204-.194-1.588-.58-.386-.388-.577-.907-.577-1.559 0-.64.178-1.172.537-1.597.375-.454.881-.68 1.521-.68.626 0 1.101.226 1.423.68.259.36.387.805.387 1.335zm-.923-.244a1.241 1.241 0 0 0-.187-.725c-.168-.262-.424-.393-.77-.393a.926.926 0 0 0-.77.384 1.4 1.4 0 0 0-.287.734h2.014zM49.518 28.354h-2.096l-1.148-3.518h-3.992l-1.094 3.518h-2.04l3.954-11.977h2.442l3.974 11.977zm-3.59-4.994-1.039-3.128c-.11-.32-.316-1.072-.62-2.256h-.036c-.121.51-.316 1.262-.584 2.256l-1.02 3.128h3.298zM59.687 23.93c0 1.468-.407 2.63-1.22 3.481-.73.76-1.636 1.138-2.717 1.138-1.166 0-2.005-.409-2.515-1.226h-.037v4.55H51.23V22.56c0-.923-.025-1.87-.073-2.843h1.731l.11 1.37h.037c.656-1.032 1.652-1.547 2.989-1.547 1.045 0 1.917.402 2.615 1.208.7.806 1.048 1.866 1.048 3.181zm-2.005.07c0-.841-.193-1.534-.583-2.08-.425-.568-.997-.853-1.713-.853-.486 0-.927.159-1.321.471a2.176 2.176 0 0 0-.775 1.236c-.06.237-.09.432-.09.585v1.44c0 .628.197 1.158.592 1.59.395.434.908.65 1.54.65.74 0 1.318-.28 1.73-.835.414-.558.62-1.292.62-2.204zM69.876 23.93c0 1.468-.407 2.63-1.222 3.481-.729.76-1.634 1.138-2.715 1.138-1.167 0-2.005-.409-2.514-1.226h-.037v4.55H61.42V22.56c0-.923-.025-1.87-.073-2.843h1.73l.11 1.37h.037c.656-1.032 1.652-1.547 2.99-1.547 1.043 0 1.915.402 2.615 1.208.697.806 1.047 1.866 1.047 3.181zM67.87 24c0-.841-.195-1.534-.584-2.08-.426-.568-.995-.853-1.713-.853-.486 0-.926.159-1.322.471a2.174 2.174 0 0 0-.773 1.236c-.06.237-.091.432-.091.585v1.44c0 .628.197 1.158.59 1.59.395.433.909.65 1.542.65.741 0 1.318-.28 1.73-.835.414-.558.621-1.292.621-2.204zM81.266 24.995c0 1.019-.362 1.848-1.09 2.488-.801.699-1.915 1.048-3.347 1.048-1.322 0-2.381-.248-3.183-.746l.456-1.6a5.5 5.5 0 0 0 2.844.766c.742 0 1.319-.164 1.733-.49.413-.326.618-.763.618-1.308 0-.486-.17-.896-.51-1.228-.339-.332-.905-.64-1.695-.926-2.15-.782-3.225-1.928-3.225-3.434 0-.985.377-1.792 1.13-2.42.752-.63 1.755-.944 3.008-.944 1.118 0 2.047.19 2.788.569l-.492 1.564c-.692-.367-1.475-.55-2.351-.55-.693 0-1.233.166-1.621.497a1.406 1.406 0 0 0-.492 1.085c0 .473.187.864.564 1.172.328.285.923.593 1.787.925 1.057.415 1.833.9 2.333 1.456.497.554.745 1.248.745 2.076zM87.773 21.157h-2.169v4.193c0 1.067.382 1.6 1.148 1.6.352 0 .644-.03.875-.09l.054 1.458c-.388.141-.898.212-1.53.212-.778 0-1.385-.231-1.823-.693-.437-.462-.657-1.238-.657-2.328v-4.354H82.38v-1.44h1.292v-1.58l1.933-.57v2.15h2.17v1.442zM97.56 23.965c0 1.327-.389 2.417-1.166 3.27-.815.877-1.897 1.314-3.246 1.314-1.3 0-2.334-.42-3.106-1.26-.771-.841-1.157-1.902-1.157-3.181 0-1.339.397-2.435 1.193-3.287.795-.853 1.868-1.28 3.216-1.28 1.3 0 2.346.42 3.135 1.262.755.816 1.132 1.87 1.132 3.162zm-2.041.062c0-.797-.175-1.48-.528-2.05-.413-.69-1.003-1.033-1.767-1.033-.79 0-1.392.345-1.805 1.033-.353.57-.528 1.265-.528 2.086 0 .796.175 1.48.528 2.048.426.69 1.02 1.033 1.788 1.033.751 0 1.34-.35 1.766-1.051.363-.58.546-1.27.546-2.066zM103.958 21.405a3.508 3.508 0 0 0-.62-.053c-.693 0-1.228.254-1.605.765-.327.45-.492 1.018-.492 1.705v4.532h-1.967l.019-5.917c0-.995-.025-1.902-.074-2.719h1.714l.072 1.653h.054a2.962 2.962 0 0 1 .984-1.368 2.422 2.422 0 0 1 1.423-.463c.182 0 .346.013.492.035v1.83zM112.759 23.627c0 .344-.023.634-.072.87h-5.904c.023.854.308 1.506.856 1.956.498.402 1.141.604 1.931.604.875 0 1.672-.136 2.389-.409l.309 1.332c-.839.357-1.828.534-2.97.534-1.373 0-2.452-.394-3.236-1.182-.783-.787-1.175-1.845-1.175-3.171 0-1.303.364-2.387 1.094-3.252.765-.923 1.798-1.385 3.097-1.385 1.277 0 2.243.462 2.9 1.385.519.733.781 1.64.781 2.718zm-1.877-.498c.013-.569-.115-1.06-.382-1.475-.341-.534-.864-.8-1.568-.8-.644 0-1.167.26-1.567.782-.328.415-.522.913-.582 1.492h4.099v.001z" fill="#fff"/>
</svg>
