<svg width="207" height="33" viewBox="0 0 207 33" fill="none" xmlns="http://www.w3.org/2000/svg">
<path fill-rule="evenodd" clip-rule="evenodd" d="M68.28 20.8988L79.8051 0.776474H88.038V32.2399H80.5374V27.6659H73.2195C72.2603 28.6604 71.3289 29.4532 70.4756 30.0443C67.7519 31.853 64.892 32.8008 60.9633 32.9735C58.227 32.9621 53.1135 31.9009 48.8887 27.4844C46.422 24.7557 44.7344 20.977 44.6814 16.3248C44.7986 12.3407 45.7112 9.64594 47.9736 6.62979C51.6515 1.91841 56.4095 -0.0528728 61.1448 0.0441783C66.0503 0.218114 69.5479 1.92722 71.9376 4.06865C72.857 4.75018 73.1823 5.09189 73.8998 5.84553L73.9492 5.8975L69.742 13.2154C69.1143 12.2739 68.5686 11.7483 67.7304 11.0198C67.7758 11.0084 64.8945 7.98599 60.9621 7.91036C56.3427 7.98473 52.8791 11.6891 52.7291 16.3248C52.6535 20.9833 56.5443 25.3203 61.1448 25.106C65.7642 24.7909 68.0417 21.3274 68.28 20.8988ZM76.5129 21.0816H80.5374V13.9477L76.5129 21.0816ZM95.4253 8.22168V32.4252H103.239V8.22168H109.301V0.908821H89.4976V8.22168H95.4253ZM118.488 20.3669H126.482V32.4252H134.34V0.908821H126.482V12.8764H118.488V0.908821H110.675V32.4252H118.488V20.3669ZM199.189 18.4171V0.908821H207V32.4252H200.13L188.23 14.8716V32.424H180.417V21.674C179.669 24.0844 178.354 26.2807 176.584 28.0793C173.485 31.2694 169.262 33 164.817 33C160.644 33 157.001 31.6727 154.039 29.0952V32.424H137.155V0.908821H144.924V25.4665H150.901C149.229 22.8373 148.382 19.7947 148.382 16.3362C148.382 11.9903 150.089 8.00111 153.232 4.94337C156.377 1.88437 160.327 0.332816 164.862 0.332816C169.129 0.332816 173.171 1.9726 176.27 4.98749C178.233 6.89574 179.62 9.13421 180.418 11.5567V0.908821H187.469L199.189 18.4171ZM156.421 16.4231C156.421 21.3866 160.417 25.1993 164.818 25.1993C169.4 25.1993 173.127 21.5631 173.127 16.4231C173.127 11.8126 169.398 8.13346 164.909 8.13346C160.148 8.13346 156.421 11.8126 156.421 16.4231ZM44.6826 0.775374V7.72524H34.9875V12.8475H43.4033V19.6172H34.9875V25.4717H44.6838V32.2388H27.3041V19.7205C26.7848 23.2156 25.314 26.1776 22.9028 28.5206C19.4896 31.8002 16.4798 32.4229 11.9902 32.4229H0V0.907721H10.9126C15.987 0.907721 19.5337 1.57195 22.8574 4.67507C25.2774 6.92363 26.7785 9.99019 27.3041 13.7437V0.775374H44.6826ZM7.8145 25.5095H10.958C16.9297 25.5095 19.7581 22.7606 19.7593 16.5556C19.7593 10.8813 16.66 7.68995 10.9126 7.68995H7.8145V25.5095Z" fill="#262424"/>
</svg>
