<svg xmlns="http://www.w3.org/2000/svg" width="188.123" height="51.483" viewBox="0 0 188.123 51.483"><defs><style>.cls-1{fill:#262424}</style></defs><g id="Group_18579" data-name="Group 18579" transform="translate(-106.487 -166.121)"><path id="Path_31841" d="M151.525,180.33c.249,1.816,3,4.265,3.748,4.207.5,0,.688-2.371.688-4.207,0-1.052.058-1.875-.5-2.066a4.368,4.368,0,0,1-3.939,2.066Zm.153-.8c1.988,0,3.806-1.587,3.806-2.984a1.165,1.165,0,0,0-1.092-1.281.838.838,0,0,1,.192.611c0,1.052-1.605,2.22-3.347,2.22a.731.731,0,0,0-.823.667c0,.537.517.767,1.264.767Zm-.421-2.161a.827.827,0,0,1-.861-.421c-.173-.344-.115-.9-.44-1.148a3.328,3.328,0,0,0,.937.1c.861,0,1.684-.592,2.314-.592a.5.5,0,0,1,.555.534c0,.842-1.7,1.531-2.5,1.531Zm-42.78,14.993c.649,0,.515-3.977,1.567-3.977.249,0,.326.249.326.554,0,.9-.44,2.218-.44,2.945,0,.363.1.478.268.478.459,0,1.262-4.379,2.046-4.379.249,0,.363.249.363.5,0,.917-1.166,3.556-1.166,4.3,0,.115.038.21.134.21.478,0,1.435-2.066,1.741-3.1.171-.536.4-.823.611-.823.191,0,.363.21.363.65a16.177,16.177,0,0,1-1.8,5.087c-.65,1.262-1.664,3.079-1.664,4.092a2.032,2.032,0,0,0,.841,1.7c-1.224-.076-1.72-.19-2.18-1.147-2.046,4.072,3.768,3.672,1.779,7.286-.362-.65-3.232-1.32-3.232-5.105,0-3.272,2.869-5.184,2.869-6.541a.876.876,0,0,0-.345-.708c-.631-.535-.65-.975-1.148-.975-.363,0-.8.842-.344,1.587.153.249.287.4.287.631,0,.536-.841,1.969-1.434,1.969s-1.052-1.471-1.052-3.843c0-2.1.478-4.226,1.071-4.226.171,0,.229.114.229.268,0,.248-.076.744-.076,1.587,0,.9.21.975.383.975Zm29.3-18.8c.306,0,.364.747.421,1.187.039.229.076.248.173.248.23,0,.593-.879.841-.879.364,0,1.339,1.014,2.964,1.014a4.358,4.358,0,0,0,4.5-4.494c0-2.774-1.951-4.4-4.647-4.4a14.028,14.028,0,0,0-2.716.631c-.306.019-.765-.745-1-.745-.1,0-.191.19-.191.516,0,.21,0,.881-.23.881-.458,0-2.236-1.321-2.236-.842,0,.44,1.185,1.779,1.185,2.123s-1.166.669-1.166.9c0,.421,1.243.5,1.243,1.033s-1.3.956-1.3,1.358c0,.326,1.3.1,1.3.5s-.956,1.739-.956,2.123c0,.1.019.1.1.1.363,0,1.453-1.245,1.72-1.245Zm-24.535,28.266a.738.738,0,0,1,.65-.784.718.718,0,0,1,.8.65.741.741,0,0,1-.65.8.759.759,0,0,1-.8-.669Zm-2.123.593a1.246,1.246,0,0,0,1.376,1.071,1.461,1.461,0,0,0,.631-.193,1.16,1.16,0,0,0,1.338.918,1.209,1.209,0,0,0,1.129-1.356,1,1,0,0,0-.114-.44l.134-.019a1.249,1.249,0,0,0-.23-2.487,1.39,1.39,0,0,0-.612.268,1.272,1.272,0,0,0-1.376-.956,1.246,1.246,0,0,0-1.11,1.4,1.1,1.1,0,0,0,.1.383l-.134.018a1.285,1.285,0,0,0-1.127,1.4Zm42.608-35.074a.478.478,0,1,0,.478-.478.473.473,0,0,0-.478.478Zm-10.67,18.13a.8.8,0,1,0,.8-.8.807.807,0,0,0-.8.8Zm.056,2.409a.9.9,0,1,0,.9-.9.9.9,0,0,0-.9.9Zm-2.754,1.626a1.32,1.32,0,1,0,1.32-1.319,1.322,1.322,0,0,0-1.32,1.319Zm.708-2.7a.765.765,0,1,0,.765-.765.767.767,0,0,0-.765.765Zm-2.507,1.53a.765.765,0,1,0,.766-.764.766.766,0,0,0-.766.764Zm1.971-4.475a1.224,1.224,0,1,0,1.225-1.224,1.233,1.233,0,0,0-1.225,1.224Zm1.435-2.353a.727.727,0,1,0,.727-.727.727.727,0,0,0-.727.727Zm-3.462,1.836a.727.727,0,1,0,.726-.725.727.727,0,0,0-.726.725Zm-.1,2.486a1.167,1.167,0,1,0,1.167-1.167,1.16,1.16,0,0,0-1.167,1.167ZM136,187.063a1.09,1.09,0,1,0,1.09-1.091,1.1,1.1,0,0,0-1.09,1.091Zm.65-2.7a.764.764,0,1,0,.765-.765.767.767,0,0,0-.765.765Zm-2.544,28.19a.764.764,0,1,0,.765-.766.767.767,0,0,0-.765.766Zm-20.576-31.69a.765.765,0,1,0,.764-.765.767.767,0,0,0-.764.765Zm-1-1.72a.765.765,0,1,0,.766-.767.767.767,0,0,0-.766.767Zm.823,18.817c.8,0,1.472-.593,1.472-1.912V194.1a3.34,3.34,0,0,1,.555-2.18,3.441,3.441,0,0,0-.057.764c0,1.645.918,2.773.918,4.361,0,.592-.172.917-.631.917-.441,0-.4-.4-.5-.4-.076,0-.191.248-.191.515a1.034,1.034,0,0,0,1.091,1.033,1.312,1.312,0,0,0,1.242-1.339c0-1.721-1.337-3.633-1.337-5.469a4.3,4.3,0,0,1,.381-1.76c0,3.807,3.232,6.58,3.232,8.168a.638.638,0,0,1-.669.651.625.625,0,0,1-.65-.613c0-.134-.019-.172-.076-.172a.976.976,0,0,0-.459.88,1.432,1.432,0,0,0,1.472,1.4,1.7,1.7,0,0,0,1.684-1.741c0-2.007-3.921-5.049-3.921-8.3a4.494,4.494,0,0,1,.5-2.142,6.575,6.575,0,0,0-3.309,5.68c0,1.644-.058,2.467-.9,2.467-.44,0-.554-.4-.708-.4-.115,0-.172.345-.172.44a1.047,1.047,0,0,0,1.033,1.109Zm33.142-19.1c.841,0,1.473-.382,1.473-.612,0-.076-.115-.133-.363-.133a10.488,10.488,0,0,1-1.684-.172c-.8-.134-1.416-.439-1.646-.439-.076,0-.113.037-.113.095,0,.5.917,1.262,2.334,1.262Zm-4.169-2.429a8.3,8.3,0,0,0,2.716-.594,1.034,1.034,0,0,1,.5-.132c.671,0,.5.764,1.111.764.478,0,1.089-.4,1.453-.4.572,0,1.4,1.8,1.4,2.639,0,.975-1.471,1.568-3.212,1.568a4.081,4.081,0,0,1-4.073-3.652.2.2,0,0,1,.115-.192Zm-28.572,28.743a2.785,2.785,0,0,0-1.644,2.717,5.331,5.331,0,0,0,5.317,4.762c2.793,0,3.48-1.932,3.48-3.233,0-2.887-1.778-4.915-4.092-4.915a2.307,2.307,0,0,0-2.391,2.276,3.165,3.165,0,0,0,3.232,3.155,1.612,1.612,0,0,0,1.7-1.645,2.118,2.118,0,0,0-1.932-2.046.562.562,0,0,0-.593.594c0,.458.632.918,1.416.918a1.01,1.01,0,0,0,.42-.077.451.451,0,0,1,.057.23c0,.438-.419.706-1.07.706a1.87,1.87,0,0,1-1.913-1.874c0-.688.592-1.186,1.454-1.186a2.845,2.845,0,0,1,2.716,3.02,1.979,1.979,0,0,1-2.276,2.144c-3.06,0-4.551-2.754-3.883-5.547Zm-1.912-20.787a1.821,1.821,0,0,0-1.358,1.606,1.126,1.126,0,0,0,1.2,1.129,1.25,1.25,0,0,0,.746-.192,2.225,2.225,0,0,1-.727-1.663,2.567,2.567,0,0,1,.134-.881Zm-4.685.268a1.406,1.406,0,0,0-.02.287c0,.9.478,1.4,1.11,1.4a2.061,2.061,0,0,0,1.53-.918,4.027,4.027,0,0,1-.689.057,2.291,2.291,0,0,1-1.931-.822Zm-.669,1.7c0,1.453.439,2.142,1.224,2.142a4.287,4.287,0,0,0,2.41-1.281,8.466,8.466,0,0,1-1.836.287,2.009,2.009,0,0,1-1.8-1.148Zm29.106,30.025a8.792,8.792,0,0,0,1.148-.076c.287,0,.305.173.305.287,0,.422-.937.937-2.6.937a1.686,1.686,0,0,1-1.74-1.09,7.542,7.542,0,0,1-3.843,1.167c-3.921,0-4.916-1.7-6.14-2.257-.937-.421-2.371.4-4.379-1.837a4.769,4.769,0,0,0,.917.076c1.759,0,2.7-.859,2.7-2.236a5.014,5.014,0,0,0-.038-.536,3.794,3.794,0,0,1,2.046,2.753c.039.191.823.363,1.321.363a1.556,1.556,0,0,0,1.7-1.414,4.3,4.3,0,0,0,4.168-3.272,4.548,4.548,0,0,1,1.989,1.4,3.443,3.443,0,0,1,1.148-.172,7.359,7.359,0,0,1,2.123.363c.038-.249.076-.555.459-.555.573,0,.42.631.612.994.1.191.573.306.573.689a.489.489,0,0,1-.5.5.854.854,0,0,1-.23-.037c-.382.134-.4,2.886-2.009,2.886a3.216,3.216,0,0,1-2.752-2.2.819.819,0,0,0-.69-.592c-.306,0-.478.058-.842.458a6.64,6.64,0,0,1-4.875,2.1c-.65,0-1.166-.057-1.3-.057-.076,0-.076.019-.076.038,0,.134.65.65,2.065.65,3.365,0,4.187-1.894,4.722-1.894a.445.445,0,0,1,.44.306,3.74,3.74,0,0,0,3.557,2.257ZM124.732,177.94c1.261,0,1.836,1.09,1.836,2.313,0,.535-.153,1.32-.4,1.32s-.211-.44-.249-.842c-.039-.515-.134-.631-.305-.631-.325,0-.535.765-.535,1.472,0,.44.075.937.42.937a.7.7,0,0,0,.478-.209,1.709,1.709,0,0,1-1.644,1.643c-1.684,0-2.315-1.97-2.506-3.117a4.64,4.64,0,0,1-3.633,1.855,2.152,2.152,0,0,1-2.275-2.238c0-.326.115-1.167.515-1.167.479,0,.057,1.568,1,1.568.23,0,.65-.191.881-.822a3.548,3.548,0,0,0,.209-1.129c0-.517-.114-.841-.5-.841a1.5,1.5,0,0,0-.861.382,2.881,2.881,0,0,1,2.792-2.084c1.511,0,2.314,1.339,2.314,2.831a3.731,3.731,0,0,1-.057.65,3.328,3.328,0,0,1,2.524-1.893Zm-4.8-11.4c0-.115-.573-.23-1.358-.23-1.242,0-1.07,1.033-2.026,1.033-.994,0-.746-1.071-2.009-1.071-.765,0-1.472.134-1.472.305,0,.23.9.134.9.765,0,.669-1.931.861-1.931,1.262,0,.134.153.191.344.191.421,0,1.091-.191,1.567-.191.268,0,.517.058.517.306,0,.479-1.031,1.339-1.031,1.722,0,.115.1.153.191.153.382,0,1.033-.976,1.645-.976,1.014,0,.345,2.162.9,2.162.574,0,.325-2.123,1.148-2.123.67,0,1.168,1.472,1.626,1.472a.217.217,0,0,0,.21-.23c0-.4-.575-1.224-.575-1.759,0-.325.23-.478.536-.478.44,0,1.033.267,1.358.267.115,0,.229-.038.229-.172,0-.459-1.7-.956-1.7-1.549s.937-.593.937-.861ZM147.184,204.2c-.4,0-2.621,2.966-4.054,2.966-.344,0-.632-.651-.632-1.148,0-.268.172-.46.785-.594,3.289-.746,2.562-3.212,5.372-3.212a3.208,3.208,0,0,1,3.272,3.423c0,2.523-3.6,5.661-4.132,5.661-.44,0-.918-.632-.918-1.052,0-.135.058-.307.441-.46a4.468,4.468,0,0,0,2.887-3.27.34.34,0,0,0-.344-.382c-.326,0-1.72,3.174-3.27,3.174-1.072,0-2.162-.975-2.162-1.432,0-.766,3.1-2.182,3.1-3.253,0-.4-.191-.421-.344-.421Zm2.065-1.185c-.268,0-.556.211-.556.725a1.214,1.214,0,0,0,.689,1.052,1.19,1.19,0,0,0,.555.153c.554,0,.994-.153.994-.612,0-.593-.86-1.318-1.683-1.318Zm-24.823-34.519c0,.344,1.205,1.09,1.76,1.09.325,0,.421-.44.421-.9,0-.572-.249-.592-.746-.592-.63,0-1.434.172-1.434.4Zm1.99,3.786c0-1.148-3.136-3.27-3.136-4.131a.178.178,0,0,1,.018-.1c.23-.632,2.83-1.071,2.83-1.588,0-.249-.458-.249-.688-.249-1.78,0-4.38.651-4.38,1.283,0,.65,2.333,2.238,2.333,3.023,0,.209-.133.286-.344.286-.65,0-2.067-.784-2.735-.784-.306,0-.42.209-.42.516,0,.917,1.089,2.659,1.089,3.174,0,.057-.019.134-.095.134-.344,0-1.97-1.912-2.543-1.912-.211,0-.23.286-.23.707v.651c0,.439-.019.707-.23.707-.5,0-.727-1.4-1.206-1.4-.5,0-.592,2.488-1.07,2.488-.555,0-.077-2.736-.613-2.736-.592,0-1.262,1.817-1.682,1.817-.153,0-.192-.153-.192-.287,0-.554.325-1.453.325-1.989,0-.268-.076-.421-.306-.421-.593,0-1.892.958-2.39.958-.076,0-.172-.038-.172-.115,0-.459,2.085-1.913,2.085-2.563,0-.632-2.869-.211-2.869-.937,0-.611,2.046-1.243,2.046-1.875,0-.554-2.429-.8-3.365-.8-1.129,0-1.741.134-1.741.459,0,.5,2.562.65,2.562,1.091,0,.421-2.658,1.549-2.658,2.2,0,.573,3.749.038,3.749.632,0,.648-3.271,3.46-3.271,4.4,0,.211.154.306.363.306,1,0,3.577-1.892,4.284-1.892.249,0,.268.3.268.573,0,.5-.172,1.262-.172,1.818,0,.439.114.745.5.745.708,0,1.358-1.2,1.836-1.2.613,0,.248,3.537,1.167,3.537.783,0,1.108-3.825,1.606-3.825s.9,1.109,1.358,1.109c.573,0,.3-1.932.917-1.932.669,0,2.581,2.3,3.442,2.3.268,0,.364-.211.364-.479,0-1.012-1.415-3.308-1.415-4.034,0-.192.057-.249.267-.249.746,0,2.925,1.033,3.958,1.033.344,0,.555-.192.555-.44Zm26.1,22.012a11.453,11.453,0,0,1,1.317-2.659c-.63-.324-2.293-1.014-2.293-2.142a2.959,2.959,0,0,1,1.988-2.351c.153,0,.192.134.192.382,0,.688-.326,1.8-.326,2.39,0,.534.344,1.051.65,1.051.325,0,1.225-1.147,1.225-2.275a2.578,2.578,0,0,0-2.332-2.639c-.517,0-1.455.842-3.656.842-4.111,0-5.047-4.074-5.047-5.852,0-.077.018-.1.037-.1a2.926,2.926,0,0,0,1.8.5c.67,0,1.282-.172,2.258-.172,2.294,0,3.308,1.587,4.724,3.615.858.534,2.906,1.395,2.906,3.824,0,2.14-2.276,3.327-2.83,5.622.879-.1,1.4-1.665,2.295-1.665.459,0,.669.365.669.937a4.162,4.162,0,0,1-1.4,2.889,1.234,1.234,0,0,0,.02-.286c0-.537-.211-1.3-.823-1.3-.954,0-1.26,1.033-1.8,1.893a9.13,9.13,0,0,0-2.639-4.78c-1.357-1.091-3.691-.5-3.691-2.486,0-.536.344-1.3.344-1.912a.9.9,0,0,0-.153-.554c1.836.687,1.187,1.911,2.315,3.173.706.8,2.657,1.568,3.786,4.876a3.641,3.641,0,0,0,.038-.515c0-2.83-3.747-5.6-4.072-6.751,2.179.249,2.56.784,3.595,3.652a12.007,12.007,0,0,1,.9,2.793ZM111.44,178.7a3.778,3.778,0,0,0,.172-1.109c0-.919-.42-2.314-1.721-2.314a1.272,1.272,0,0,0-1.281,1.3c0,1.512,1.51,2.123,2.83,2.123Zm-1.626,4.819a1.577,1.577,0,0,1-1.319-1.491c0-.383.288-.861.5-.861.077,0,.115.057.134.191a2.173,2.173,0,0,0,1.3,1.74c.057.039.1.058.1.1,0,.134-.364.326-.708.326Zm2.257-1.8c0,.267-.153.612-.459.612-.668,0-1.2-1.015-1.2-1.589,0-.362.211-.4.5-.4a.463.463,0,0,1,.286.077c.171.1.171.477.382.764.115.191.5.4.5.536Zm-.67-2.009a2.815,2.815,0,0,0-.42-.019,3.982,3.982,0,0,0-2.218.612c-1.684,1.09-1.416,2.81-1.684,3.251a.386.386,0,0,0-.057.211.407.407,0,0,0,.363.363c.154,0,.249-.038.326-.038.459,0,.975.325,1.72.325a3.649,3.649,0,0,0,1.607-.459,3.991,3.991,0,0,0,1.913-2.678c0-.363-.287-.306-.536-.65-.268-.4-.134-.554-.306-.784a1.7,1.7,0,0,0-.708-.134Zm2.028,3.079a3.631,3.631,0,0,0-.861,2.2,1.718,1.718,0,0,0,1.607,1.893,1.447,1.447,0,0,0,1.377-1.625,2.826,2.826,0,0,0-2.123-2.467Zm-4.094-3.672a2.285,2.285,0,0,1-1.243.421,1.439,1.439,0,0,1-1.473-1.473,1.611,1.611,0,0,1,1.014-1.511,1.8,1.8,0,0,0-.02.325,2.227,2.227,0,0,0,1.721,2.238Zm34.022,11.129a.737.737,0,0,1,1.472,0,.736.736,0,1,1-1.472,0Zm.5,21.995c.1,0,.211.057.211.4a1.679,1.679,0,0,1-.878,1.414,3.711,3.711,0,0,1-2.086.613,4.526,4.526,0,0,0,.268-1.4,3.676,3.676,0,0,0-.039-.438h.249a4.353,4.353,0,0,0,2.275-.593Zm.153-1.895a.7.7,0,0,0,.191-.554v-.44c0-.555-.84-.881-1.987-.881-1.4,0-2.143.631-2.143.9v.88c0,.364.842.727,1.876.727a3.2,3.2,0,0,0,2.064-.631Zm1,.211a5.646,5.646,0,0,1-3.595,1.243,4.72,4.72,0,0,1-1.645-.325c-.19,0-.4.192-.611.44a4.28,4.28,0,0,0-1.052,2.619,1.569,1.569,0,0,0,1.7,1.531c3.576,0,6.253-2.239,6.253-4.054,0-1.034-.612-1.454-1.052-1.454Zm.669-16.084c0,.477.154,1.031.632,1.031.4,0,.747-.611.747-1.28,0-.766-.134-1.359-.134-1.665,0-.133.057-.19.134-.19.286.019.555.8.861.8.344,0,.86-.631,1.069-.631.057,0,.077.076.077.1,0,.287-.44.919-.44,1.167,0,.211,1.11.248,1.11.441,0,.286-1.167.286-1.72.535-.536.229-.861.516-.861.9s.382.459.918.459a7.593,7.593,0,0,0,2.466-.688.09.09,0,0,1,.1.1c0,.191-.65.823-.65,1.11,0,.325,1.187.706,1.167.9-.019.057-.1.076-.23.076-.21,0-.535-.057-.784-.057-.153,0-.287.018-.344.094-.135.154.038,1.168-.23,1.168-.249,0-.9-2.257-2.371-2.257-.211,0-.364.172-.364.459a2.879,2.879,0,0,0,1.454,2.065c.323.211.86.421.86.536,0,.228-1.223.019-1.223.4,0,.345.153.861.153,1.167,0,.1-.018.211-.134.211-.228,0-.784-1.052-1.052-1.052-.228,0-.726.631-.937.631a.107.107,0,0,1-.1-.115c0-.441.708-1.434.708-2.409,0-.459-.057-1.453-.612-1.453-.46,0-.975.725-1.206,1.453-.134.421-.038,2.046-.344,2.046-.287,0-.211-1.089-.594-1.089-.285,0-.9.515-1.108.515-.038,0-.076-.019-.076-.057,0-.228.554-.974.554-1.127,0-.287-1.263-.326-1.263-.555,0-.134.5-.23.957-.306.975-.172,2.409-.879,2.409-1.874,0-1.108-1.073-1.586-1.778-2.046-.364-.23-.765-.421-.765-.574s.459-.153.65-.153c.286,0,.573-.02.573-.249,0-.172-.039-.515-.039-.783,0-.191.019-.344.1-.344.287,0,.69.937.881.937.305,0,.727-.765,1.014-.765.095,0,.133.057.133.23,0,.707-.364,1.51-.364,2.2Zm-9.121-5.6c.211,1.625,2.39.8,2.39,2.772,0,.288-.077.708-.077,1.071,0,.421.038.784.363.784s.4-.229.4-.536-.077-.688-.077-.9a.741.741,0,0,1,.765-.823c.727,0,1.281.746,2.372.746-.249,1.224-2.773.9-2.773,2.238,0,.669.669.821,1.11.821.4,0,.535-.057.535-.4,0-.191-.038-.4-.038-.536a.15.15,0,0,1,.153-.153c.421,0,2.486,1.568,2.486,2.046,0,.44-2.18.88-2.812.88a.2.2,0,0,1-.23-.21c0-.134.326-.536.326-.766,0-.172-.286-.287-1.052-.287-.363,0-.632.038-.632.326,0,.516.842,1.148.842,1.626,0,.382-.23.611-.842.611-.516,0-1.3-.4-1.3-1.07,0-.536.555-1.071.555-1.4a.27.27,0,0,0-.307-.249c-.708,0-.9,1.874-3.4,2.085a1.922,1.922,0,0,0,.747-1.587c0-.4-.1-.727-.1-1.166,0-.574.267-.861.65-.861.708,0,1.051.993,1.51.993a.552.552,0,0,0,.516-.573c0-1.454-2.791-1.243-2.791-3.289a4.743,4.743,0,0,1,.708-2.2Zm3.634,12.43a.457.457,0,0,0,.458.478.527.527,0,0,0,.5-.574c0-.4-.364-.956-.709-.956-.152,0-.094.229-.134.478-.018.191-.113.421-.113.574Zm-.994-2.544a3.535,3.535,0,0,1,3.1,3.309,1.731,1.731,0,0,1-1.684,1.873,1.622,1.622,0,0,1-1.684-1.739c0-.8.632-1.645.632-2.469a1.479,1.479,0,0,0-.363-.974Zm-2.544,3.251a.774.774,0,0,1,.249.574c0,.287-.134.592-.134.917a.84.84,0,0,0,.842.86.889.889,0,0,0,.9-.917,1.677,1.677,0,0,0-1.855-1.433Zm6.329-1.225a1.139,1.139,0,0,1,.192.613c0,.536-.363,1.033-.363,1.587a1.142,1.142,0,0,0,1.2,1.147,1.323,1.323,0,0,0,1.32-1.376c0-1.014-.918-1.874-2.352-1.97Zm-5.871-1.014c.879.115,1.09.421,1.09.669,0,.422-.382.555-.745.555-.267,0-.573-.057-.9-.057a1.449,1.449,0,0,0-1.186.5c.248.038.612.21.612.593,0,1.109-3.079.191-3.079,3.04,0,1.512,1.57,3.155,3.94,3.155,1.225,0,2.008-.4,2.008-.859,0-.363-.65-.115-.65-.42,0-.135.23-.383.23-.594,0-.1-.076-.268-.23-.268a7.6,7.6,0,0,1-2.313.555c-1.032,0-2.047-.593-2.047-1.4,0-.172.076-.268.191-.268s.268.077.4.077c.116,0,.134-.077.134-.287s0-.8.365-.8,1.051,1.34,3.69,1.34a6,6,0,0,0,3.213-.746,4.969,4.969,0,0,1-5.106,4.877,5.4,5.4,0,0,1-5.488-5.508,5.631,5.631,0,0,1,5.661-5.584c.84,0,1.549.287,1.549.65,0,.5-1.243.191-1.339.784ZM123.26,180.2c0-.326-.076-.4-.153-.4-.191,0-.4.229-.708.744.039.689.153,1,.344,1,.211,0,.517-.67.517-1.339Zm-2.621.783c.211,0,.478-.23.975-.783a4.892,4.892,0,0,0,.038-.765c0-.383-.153-.8-.383-.8-.573,0-.86,1.531-.86,1.931,0,.23.116.421.23.421Zm3.118,1.7c.478,0,1.014-1.836,1.014-2.983,0-.249-.039-.517-.153-.517-.4,0-1.073,1.892-1.073,2.927,0,.4.1.573.212.573Zm-4.687-1.052c.651,0,1.4-3.518,1.4-4.111,0-.153-.058-.268-.191-.268-.594,0-1.416,3.346-1.416,4.092,0,.134.038.288.21.288Zm2.085,1.453c-.822,0-.86,1-.86,3-.613-1.32-1.627-2.735-2.812-2.735-.8,0-1.11.536-1.11,1.473a3.625,3.625,0,0,0,.057.65.726.726,0,0,1,.786-.458,3.488,3.488,0,0,1,2.466,1.491,12.8,12.8,0,0,0-2.084-.268,2.4,2.4,0,0,0-1.014.172,2.545,2.545,0,0,0-1.3,2.315,3.8,3.8,0,0,0,.058.63,4.117,4.117,0,0,1,3.595-2.159,3.569,3.569,0,0,1,.535.038,3.106,3.106,0,0,0-.765,2.1c-.02.305-.135.326-.344.326,0,.629.5,1.567.5,2.046a.4.4,0,0,1-.191.363c0,.841.841,1.453.841,1.988a.452.452,0,0,1-.095.307c.057.344.976.937,1.091,1.185.191.4.326.44.42.44.325,0,.842-.382.842-.727a.455.455,0,0,0-.172-.306,2.811,2.811,0,0,1-.708-1.224.374.374,0,0,1-.363-.268c-.077-.248-.116-1.147-.268-1.586-.249-.058-.363-.153-.363-.67,0-.249.152-1.224.152-1.568a.271.271,0,0,1-.268-.305c0-.611.613-1.089.784-1.874a2.817,2.817,0,0,1,1.358,2.352,5.014,5.014,0,0,1-.134,1.089c.8-.4,2.009-.994,2.009-2.2,0-.708-.326-1.491-2.486-1.8a6.764,6.764,0,0,1,2.219-.382c1.224,0,1.932.382,2.085,1.242a2.388,2.388,0,0,0,.439-1.223A1.616,1.616,0,0,0,124.273,185a6.109,6.109,0,0,0-3.309,1.357c.5-1.031.842-1.644,1.454-1.644a1.472,1.472,0,0,1,.286.038c-.229-.842-1.09-1.664-1.549-1.664Zm-12.2-11.914a3.658,3.658,0,0,1-1.97,1.665c-.191,0-.248-.231-.248-.44a1.7,1.7,0,0,1,.382-1.091,2.142,2.142,0,0,1,1.263-.343c.268,0,.573.055.573.209Zm44.426,25.7c.955,0,1.721,1.243,1.721,2.7a6.006,6.006,0,0,1-2.026,4.379c-.019-2.581-3.176-1.759-3.176-3.634a1.268,1.268,0,0,1,1.263-1.337,1.936,1.936,0,0,1,1.435.517,1.7,1.7,0,0,1-.517-1.224,1.3,1.3,0,0,1,1.3-1.4Zm-14.19-19.563a1.436,1.436,0,0,0-1-.383,1.548,1.548,0,0,0-1.53,1.129,1.809,1.809,0,0,1-.134-.65,1.847,1.847,0,0,1,1.97-1.874,3.348,3.348,0,0,1,1.874.65c.191,0,.383-.191.536-.191.21,0,.21.325.21.554a3.133,3.133,0,0,1-1.2,2.563,1.946,1.946,0,0,0-.956-.918.3.3,0,0,1-.192-.286.771.771,0,0,1,.421-.593Zm-2.889,1.4a2.036,2.036,0,0,0,1.472.688c.21,0,.459-.058.594-.058.172,0,.287.076.287.211a1.2,1.2,0,0,1-.421.746,1.905,1.905,0,0,0,.746.134,2.251,2.251,0,0,0,2.333-2.409,2.567,2.567,0,0,1,.364,1.223,2.743,2.743,0,0,1-2.945,2.888,4.107,4.107,0,0,1-1.493-.306c-.363,0-.344.727-.592.708-.441-.076-.842-1.052-.842-2.085a3.036,3.036,0,0,1,.5-1.74Zm-13.29-5.565c0,.669,2.39,3.939,2.849,3.939.382,0,.669-.669.669-1.244a.772.772,0,0,0-.114-.42c-.345-.477-2.774-2.39-3.309-2.39a.107.107,0,0,0-.1.115Zm27.595-1.57c0-1.357-3.251-1.7-3.251-2.007,0-.249,1.817-.67,2.754-.689-1.436-1.836-3.48-1.644-3.48-1.969a5.888,5.888,0,0,1,2.945-.575c1.185,0,2.3.268,2.3,1.167,0,.5-.4,1.014-.4,1.778a.708.708,0,0,0,.765.785c.594,0,.728-.632.728-1.3,0-.553-.1-.975-.1-1.241a1.274,1.274,0,0,1,1.338-1.339c.65,0,.8.286,1.759.286a1.458,1.458,0,0,0-.708,1.129c0,.8.517,1.358.517,3,0,3.021-2.829,4.092-6.292,4.092a19.668,19.668,0,0,1-2.964-.23c-.154-.019-.191-.057-.191-.152,0-.249,1.358-.383,1.358-1.607a9.518,9.518,0,0,0-.153-1.11.152.152,0,0,1,.153-.153c.287,0,.859,1.11,1.93,1.11a.911.911,0,0,0,1-.977Zm3.231-1.932c0,1.7-1.241,3-3.48,3.367.249.019.479.019.709.019,2.619,0,3.575-1.187,3.575-2.18a1.22,1.22,0,0,0-.8-1.206Zm-1.815,15.378c0-.4-1.014-.44-1.11-1.569-.02-.172-.076-.478-.288-.478-.344,0-.076,1.052-.459,1.052-.881,0-1.167-1.72-1.493-1.72-.076,0-.172.057-.172.286,0,.211.038.345.038.592s-.059.421-.285.421c-.517,0-.976-1.205-1.416-1.205a.173.173,0,0,0-.191.153c0,.23.382.65.382.86,0,.46-1.244.211-1.244.594,0,.173.172.23.4.23.4,0,1.033-.172,1.357-.172.191,0,.48.039.48.287,0,.268-.69.612-.69.861a.192.192,0,0,0,.21.172c.517,0,1.434-.9,2.084-.9.116,0,.4.056.4.229,0,.248-.651.688-.651,1.051a.194.194,0,0,0,.173.211c.344,0,.8-.9,1.454-.9.249,0,.613.1.8.1.153,0,.211-.1.211-.153Zm-13.694-14.592c0-.21-.745-.613-.745-.842,0-.038.038-.058.1-.058.209,0,.573.077.86.077.248,0,.287-1.07.478-1.07.134,0,.363,1.013.575,1.013.248,0,.705-.287.9-.287.038,0,.076.018.076.057,0,.134-.478.65-.478.8,0,.173,1.072.382,1.072.536,0,.192-1.092.172-1.092.343,0,.134.4.67.4.842a.051.051,0,0,1-.058.058c-.153,0-.745-.268-.917-.268-.211,0-.555.785-.727.785-.058,0-.1-.078-.1-.173l-.039-.765c0-.077-.037-.153-.133-.153-.23,0-.669-.019-.8-.019-.094,0-.133-.019-.133-.058,0-.153.764-.688.764-.821Zm3.73,3.634c-1.339,0-2.219-.67-2.219-1.014a.267.267,0,0,1,.267-.286c.421,0,1.339.649,1.646.649.076,0,.134-.038.134-.152,0-.344-.326-.918-.326-1.205,0-.076.058-.134.174-.134.515,0,1.281.211,1.683.211.134,0,.172-.077.172-.153,0-.422-1.243-1.243-1.243-1.493,0-.229,1.547-.573,1.547-.937,0-.382-2.1-.115-2.1-.479,0-.267.4-.726.4-.935,0-.1-.076-.134-.21-.134a15.13,15.13,0,0,1-1.474.363c-.191,0-.421-.038-.421-.306,0-.44.746-.919,1.914-.919,1.892,0,3.02,1.3,3.02,3.482,0,2.753-1.93,3.442-2.964,3.442Zm-12.947,33.085a.879.879,0,0,1-.21.554,1.411,1.411,0,0,0-1.07-.574c-1.971,0-1.225,2.849-3.329,2.849a9.951,9.951,0,0,1-1.28-.115c-.135,0-.211.057-.211.172,0,.5.707,1.723,2.676,1.723s3.863-1.206,3.863-2.7a2.006,2.006,0,0,0-.172-.784.562.562,0,0,1,.44-.191c.306,0,.479.345.765.345a.523.523,0,0,0,.535-.534.579.579,0,0,0-.365-.536.654.654,0,0,0,.269-.515.608.608,0,0,0-.611-.631.542.542,0,0,0-.421.191c-.038-.344-.229-.67-.593-.67a.493.493,0,0,0-.5.536c0,.306.21.554.21.88Zm-5.145.727c-.573,0-1.434-.613-1.434-.957a.464.464,0,0,1,.478-.441c.478,0,1.338.594,1.338,1.092,0,.133-.1.306-.383.306Zm-5.336-4.286c1.531.382,2.295,1.206,2.448,2.181a4.249,4.249,0,0,0,.708,2.086,3.318,3.318,0,0,0,2.238,1.012c.689,0,1.244-.228,1.244-.858a2.625,2.625,0,0,0-2.315-2.239c-.133,0-.306.019-.5.019a.92.92,0,0,1-.575-.172c-.307-.268-.4-1.7-.975-2.562a2.4,2.4,0,0,0-2.256-1.225c-.669,0-1.415.363-1.415.9,0,.326.172.554,1.4.859Zm9.6-2.332c0-.861-1.778-.88-1.778-2.18a2.986,2.986,0,0,1,.631-1.474,2.075,2.075,0,0,0,1.434,1.837,2.449,2.449,0,0,1,1.932,2.6c0,1.719-1.205,3.863-4.3,3.863a4.355,4.355,0,0,1-4.265-4.093c0-.517.134-1.09.459-1.09.287,0,.382.229.612.459a3.982,3.982,0,0,0,3.155,1.09c1.225,0,2.123-.5,2.123-1.014Zm.076,1.378c-.669.267-.917.248-.917.916,0,.249-.058.575-.058.746,0,.23.038.364.306.364a2.448,2.448,0,0,0,1.778-2.161c0-.268-.153-.382-.325-.382-.153,0-.325.306-.784.517Zm-6.1-9.66c0-1.224,2.907-1.874,2.907-3.384a2.5,2.5,0,0,0-.268-1.014,3.078,3.078,0,0,1,1.759,2.256c0,1.321-1.376,1.932-1.376,2.754,0,.956,1.472,1.11,1.472,2.294,0,.975-1.4,2.1-1.4,3.366a1.909,1.909,0,0,0,1.74,1.913,4.406,4.406,0,0,1-.976.134c-1.932,0-3.921-1.588-3.921-3.481a3.262,3.262,0,0,1,1.015-2.352,2.732,2.732,0,0,0,1.414.765c.307,0,.441-.153.441-.382,0-.709-2.812-1.358-2.812-2.869Z" class="cls-1" data-name="Path 31841"/><path id="Path_31842" d="M147.773,280.509a5.041,5.041,0,0,0,4.39-2.689,26.85,26.85,0,0,1-1.515-6.956c-.429-6.966,2.258-13.519,5.2-13.7,2.155-.129,3.878,1.91,4.076,5.206.532,8.688-2.363,12.314-3.807,15.435a5.131,5.131,0,0,0,4.24,3.28,2.77,2.77,0,0,0,1.8-.651,7.088,7.088,0,0,1-.291-2.082c0-5.03,3.239-9.276,6.041-9.276,2.232,0,3.52,2.948,3.52,4.9,0,2.3-1.94,4.168-4.814,5.965a3.461,3.461,0,0,0,2.231.861c4.1,0,6.251-4.958,7.837-9.493.286-.862.794-2.084,1.795-2.084,1.727,0,2.448,11.36,5.32,11.36,1.226,0,2.229-2.517,2.229-4.453,0-1.44-.5-1.585-.5-3.673,0-2.3,1.222-4.24,2.879-4.24,1,0,1.366,1.006,1.366,2.228,0,4.6-3.307,13.16-8.194,13.16-3.672,0-3.384-6.335-4.673-6.335-1.443,0-3.458,6.407-10.574,6.407a4.56,4.56,0,0,1-3.377-1.732,8.271,8.271,0,0,1-4.821,1.659c-2.658,0-3.809-2.736-4.885-2.736-1.3,0-2.731,2.808-7.047,2.808-3.454,0-4.029-4.6-5.247-4.6-1.08,0-2.733,4.6-4.529,4.6-3.027,0-3.668-7.981-6.33-7.981-2.087,0-8.673,8.1-10.463,7.919-.719-.076-1.021-.613-.945-1.334a50.214,50.214,0,0,1,1.306-4.919c.581-2.18,1.114-4.583,1.413-5.346a1.912,1.912,0,0,1,1.734-1.259c.322.031.42.631.521,1.128.361,1.784.871,3.593,1.443,3.593,1.008,0,4.346-6.4,6.284-6.4,2.374,0,2.661,10.069,5.9,10.069,1.08,0,1.874-1.3,2.589-2.877.074-2.664.791-6.47,2.948-6.47,1.513,0,2.231,3.374,1.15,6.33,0,3.518,2.3,4.382,3.81,4.382Zm53.636-6.756c0-1.8-1.652-4.318-4.1-4.318-3.237,0-6.395,3.524-6.395,8.413,0,4.383,2.726,5.827,5.456,5.827,4.746,0,7.626-3.89,9.133-7.122.722,2.157,1.146,7.122,2.948,7.122.719,0,1.222-.361,2.088-2.3,2.153-4.818,4.238-10.354,7.117-10.354,1.075,0,.431,1.942,3.017,1.942a2.1,2.1,0,0,0,2.083-2.159c0-1.653-1.507-2.948-3.81-2.948-6.753,0-8.191,10.141-9.273,10.141-1.8,0-1.222-8.123-2.517-8.123-1.151,0-1.728,1.367-1.871,2.011-.936,3.74-3.593,9.134-7.621,9.134-.934,0-2.588-.362-2.588-1.3,0-1.007,6.328-1.146,6.328-5.965Zm-43.817-9.44c-.124-2.006-.61-2.914-1.687-2.841-1.433.087-2.093,4.589-1.8,9.324.188,3.091.647,3.563,1.076,3.536.794-.047,2.691-5.568,2.415-10.02Zm-11.69-4.218a2.09,2.09,0,0,0-2.225-1.943,2.849,2.849,0,0,0-2.514,3.234,2.113,2.113,0,0,0,2.158,2.156c1.578,0,2.729-1.791,2.581-3.447Zm22.364,14.663c0-1.217-.65-2.229-1.437-2.229-.652,0-2.157.719-2.157,3.021a4.477,4.477,0,0,0,.935,3.023,3.725,3.725,0,0,0,2.659-3.814Zm28.108-2.441c1.512,0,1.946,1.792,1.586,2.873a4.611,4.611,0,0,1-3.668,2.658c-.432-1.081-.649-5.531,2.082-5.531Zm-98.888,1.15a30.273,30.273,0,0,1,1.3-10.069c.645-2.225,1.222-3.019,3.233-3.447,1.581-.29,1.441,1.362,1.081,3.3a38.282,38.282,0,0,0-.864,11.287c.283,5.175,2.661,7.19,5.246,7.19,3.882.074,5.609-3.161,6.327-7.837.574-3.738.141-5.54-.22-6.686a28.553,28.553,0,0,1-1-3.162c-.285-2.734,1-4.024,2.087-4.386,1.295-.361,1.8.29,2.3,1.8.65,2.3.721,5.314.5,9.627-.286,5.895-3.235,13.019-10.569,12.872-6.328-.14-9.128-4.241-9.419-10.492Z" class="cls-1" data-name="Path 31842" transform="translate(71.851 -78.753)"/></g></svg>