<svg width="396" height="62" viewBox="0 0 396 62" fill="none" xmlns="http://www.w3.org/2000/svg">
<path d="M102.03 44.3317C102.488 44.373 103.007 44.4143 103.589 44.4557C104.213 44.4557 104.94 44.4557 105.772 44.4557C110.637 44.4557 114.233 43.2363 116.562 40.7977C118.932 38.359 120.117 34.9903 120.117 30.6917C120.117 26.1863 118.994 22.7763 116.749 20.4616C114.504 18.147 110.949 16.9896 106.084 16.9896C105.419 16.9896 104.733 17.0103 104.026 17.0516C103.747 17.0516 103.474 17.0581 103.208 17.0709C102.531 17.1037 102.03 17.6785 102.03 18.3518V44.3317ZM130.158 30.6917C130.158 34.4117 129.576 37.6563 128.412 40.4257C127.248 43.195 125.584 45.489 123.422 47.3077C121.302 49.1263 118.704 50.4903 115.626 51.3997C112.549 52.309 109.099 52.7637 105.273 52.7637C103.527 52.7637 101.49 52.681 99.1613 52.5157C97.2068 52.4115 95.2809 52.1909 93.3851 51.8538C92.7524 51.7413 92.3008 51.1889 92.3008 50.5503V9.79759C94.546 9.38428 96.8747 9.11559 99.286 8.99159C101.739 8.82628 103.839 8.74359 105.585 8.74359C109.286 8.74359 112.633 9.15697 115.626 9.98359C118.661 10.8103 121.261 12.1123 123.422 13.8896C125.584 15.667 127.248 17.9403 128.412 20.7096C129.576 23.479 130.158 26.8063 130.158 30.6917Z" fill="#111111"/>
<path d="M149.73 30.6916C149.73 32.7996 149.979 34.7009 150.478 36.3956C151.018 38.0902 151.767 39.5576 152.723 40.7976C153.721 41.9962 154.927 42.9262 156.341 43.5876C157.754 44.2489 159.376 44.5796 161.205 44.5796C162.993 44.5796 164.594 44.2489 166.008 43.5876C167.463 42.9262 168.669 41.9962 169.625 40.7976C170.623 39.5576 171.371 38.0902 171.87 36.3956C172.411 34.7009 172.681 32.7996 172.681 30.6916C172.681 28.5836 172.411 26.6822 171.87 24.9876C171.371 23.2516 170.623 21.7842 169.625 20.5856C168.669 19.3456 167.463 18.3949 166.008 17.7336C164.594 17.0723 162.993 16.7416 161.205 16.7416C159.376 16.7416 157.754 17.0929 156.341 17.7956C154.927 18.4569 153.721 19.4076 152.723 20.6476C151.767 21.8462 151.018 23.3136 150.478 25.0496C149.979 26.7442 149.73 28.6249 149.73 30.6916ZM182.722 30.6916C182.722 34.3702 182.161 37.6149 181.039 40.4256C179.957 43.1949 178.46 45.5302 176.548 47.4316C174.635 49.2916 172.348 50.6969 169.688 51.6476C167.068 52.5982 164.24 53.0736 161.205 53.0736C158.253 53.0736 155.468 52.5982 152.848 51.6476C150.229 50.6969 147.941 49.2916 145.988 47.4316C144.033 45.5302 142.495 43.1949 141.372 40.4256C140.25 37.6149 139.688 34.3702 139.688 30.6916C139.688 27.0129 140.27 23.7889 141.435 21.0196C142.599 18.2089 144.158 15.8529 146.112 13.9516C148.108 12.0502 150.395 10.6243 152.973 9.67356C155.592 8.72294 158.337 8.24756 161.205 8.24756C164.157 8.24756 166.943 8.72294 169.563 9.67356C172.182 10.6243 174.469 12.0502 176.423 13.9516C178.377 15.8529 179.916 18.2089 181.039 21.0196C182.161 23.7889 182.722 27.0129 182.722 30.6916Z" fill="#111111"/>
<path d="M207.08 8.74359C213.524 8.74359 218.472 9.88028 221.924 12.1536C225.374 14.3856 227.1 18.0643 227.1 23.1896C227.1 28.3563 225.354 32.097 221.861 34.4117C218.369 36.685 213.379 37.8217 206.893 37.8217H205.188C204.442 37.8217 203.837 38.4231 203.837 39.165V52.2057H195.458C194.712 52.2057 194.107 51.6042 194.107 50.8622V9.85959C196.227 9.44628 198.473 9.15697 200.843 8.99159C203.213 8.82628 205.292 8.74359 207.08 8.74359ZM207.704 16.9896C206.997 16.9896 206.289 17.0103 205.583 17.0516C205.408 17.0625 205.24 17.0733 205.077 17.0842C204.375 17.1308 203.837 17.713 203.837 18.4117V29.5756H206.893C210.261 29.5756 212.797 29.121 214.502 28.2116C216.206 27.3023 217.059 25.6076 217.059 23.1276C217.059 21.929 216.83 20.937 216.373 20.1516C215.957 19.3663 215.333 18.7463 214.502 18.2916C213.711 17.7956 212.734 17.465 211.57 17.2996C210.406 17.093 209.117 16.9896 207.704 16.9896Z" fill="#111111"/>
<path d="M250.491 8.74359C256.936 8.74359 261.883 9.88028 265.335 12.1536C268.786 14.3856 270.511 18.0643 270.511 23.1896C270.511 28.3563 268.765 32.097 265.272 34.4117C261.78 36.685 256.79 37.8217 250.304 37.8217H248.599C247.853 37.8217 247.248 38.4231 247.248 39.165V52.2057H238.87C238.123 52.2057 237.519 51.6042 237.519 50.8622V9.85959C239.639 9.44628 241.884 9.15697 244.254 8.99159C246.624 8.82628 248.703 8.74359 250.491 8.74359ZM251.115 16.9896C250.408 16.9896 249.701 17.0103 248.994 17.0516C248.82 17.0625 248.651 17.0733 248.488 17.0842C247.787 17.1308 247.248 17.713 247.248 18.4117V29.5756H250.304C253.672 29.5756 256.208 29.121 257.913 28.2116C259.618 27.3023 260.47 25.6076 260.47 23.1276C260.47 21.929 260.242 20.937 259.784 20.1516C259.368 19.3663 258.745 18.7463 257.913 18.2916C257.123 17.7956 256.146 17.465 254.982 17.2996C253.818 17.093 252.528 16.9896 251.115 16.9896Z" fill="#111111"/>
<path d="M308.189 43.8976C308.438 43.8976 308.639 44.0981 308.639 44.3454V51.7578C308.639 52.0051 308.438 52.2056 308.189 52.2056H282.282C281.536 52.2056 280.931 51.6042 280.931 50.8622V12.9304C280.931 12.3254 281.336 11.795 281.923 11.6342L290.66 9.23956V43.8976H308.189Z" fill="#111111"/>
<path d="M320.699 52.2056C319.953 52.2056 319.348 51.6042 319.348 50.8622V9.23956H349.369C349.67 9.23956 349.886 9.52633 349.802 9.81295L347.679 17.0393C347.623 17.2303 347.446 17.3616 347.246 17.3616H330.428C329.682 17.3616 329.077 17.963 329.077 18.705V25.7936H344.568C344.867 25.7936 345.084 26.08 345 26.3666L342.937 33.407C342.881 33.5982 342.705 33.7296 342.505 33.7296H330.428C329.682 33.7296 329.077 34.331 329.077 35.073V44.0836H350.2C350.5 44.0836 350.717 44.3698 350.633 44.6563L348.522 51.8826C348.467 52.0739 348.29 52.2056 348.09 52.2056H320.699Z" fill="#111111"/>
<path d="M373.106 8.74359C379.592 8.74359 384.561 9.90097 388.012 12.2156C391.463 14.489 393.189 18.0436 393.189 22.8796C393.189 25.897 392.481 28.3563 391.068 30.2576C389.696 32.1176 387.7 33.585 385.081 34.6597C385.954 35.7343 386.868 36.9743 387.825 38.3797C388.781 39.7437 389.717 41.1903 390.631 42.7197C391.588 44.2077 392.503 45.7783 393.376 47.4317C394.131 48.8256 394.839 50.2042 395.501 51.5673C395.645 51.8633 395.427 52.2057 395.096 52.2057H385.158C384.995 52.2057 384.845 52.1179 384.764 51.9763C384.015 50.6453 383.248 49.2957 382.461 47.9277C381.671 46.481 380.84 45.0757 379.967 43.7117C379.135 42.3477 378.304 41.0663 377.472 39.8677C376.64 38.6277 375.809 37.5117 374.977 36.5197H371.527C370.78 36.5197 370.175 37.1211 370.175 37.863V52.2057H361.797C361.05 52.2057 360.445 51.6042 360.445 50.8622V9.85959C362.566 9.44628 364.749 9.15697 366.994 8.99159C369.281 8.82628 371.318 8.74359 373.106 8.74359ZM373.667 16.9896C372.96 16.9896 372.316 17.0103 371.734 17.0516C371.626 17.0598 371.52 17.068 371.415 17.0762C370.714 17.1307 370.175 17.713 370.175 18.4117V28.8317H372.919C376.578 28.8317 379.197 28.377 380.777 27.4676C382.358 26.5583 383.147 25.0083 383.147 22.8176C383.147 20.7096 382.337 19.2216 380.715 18.3536C379.135 17.4443 376.786 16.9896 373.667 16.9896Z" fill="#111111"/>
<path fill-rule="evenodd" clip-rule="evenodd" d="M1.145 0C0.646856 0 0.35181 0.547141 0.620006 0.964451L11.8015 18.3626C12.7261 19.8014 14.3202 20.6721 16.0376 20.6721H31.1614C36.7045 20.6721 40.17 25.5444 40.1497 31C40.1294 36.4556 36.4365 41.2794 31.1614 41.2794H15.0149C14.0885 41.2794 13.3409 42.026 13.3409 42.947V60.3341C13.3409 61.2542 14.0869 62 15.0124 62H35.638C53.485 62 62.3575 45.1676 62.3683 31C62.3791 16.8324 53.6105 0 35.638 0H1.145ZM8.48109 41.3278H4.46579C1.9994 41.3278 0 43.6407 0 46.4938V54.682V61.544C0 61.7913 0.201679 61.9918 0.450462 61.9918H4.46579C6.93217 61.9918 8.93157 59.6789 8.93157 56.8258V41.7756C8.93157 41.5283 8.72988 41.3278 8.48109 41.3278Z" fill="url(#paint0_linear_3689_27174)"/>
<defs>
<linearGradient id="paint0_linear_3689_27174" x1="49.7804" y1="-2.06192" x2="6.04104" y2="56.9524" gradientUnits="userSpaceOnUse">
<stop offset="0.0364583" stop-color="#424C55"/>
<stop offset="0.5" stop-color="#33373D"/>
<stop offset="1" stop-color="#28292F"/>
</linearGradient>
</defs>
</svg>
