<svg width="48" height="50" viewBox="0 0 48 50" fill="none" xmlns="http://www.w3.org/2000/svg">
    <path d="M0 24.914c0-13.254 10.745-24 24-24s24 10.746 24 24v1.022c0 13.255-10.745 24-24 24s-24-10.745-24-24v-1.022z" fill="#000D21"/>
    <g clip-path="url(#a42q26rina)">
        <path d="m35.225 25.356-6.191 4.1a2.109 2.109 0 0 1-1.498.325 2.115 2.115 0 0 0-1.501.323l-.829.55-4.64-6.84 1.139-4.918a5.142 5.142 0 0 0-.721-3.992 1.226 1.226 0 0 1 1.877-1.559l.738.715a7.882 7.882 0 0 1 1.902 2.917l.4 1.076 4.118-2.72a1.404 1.404 0 0 1 1.968.428c.405.649.197 1.506-.441 1.929-.008.005-.009.013-.006.02.004.006.011.01.02.007a1.412 1.412 0 0 1 1.674.536 1.4 1.4 0 0 1 .206 1.048c-.109.551-.51.835-.588.889a.03.03 0 0 0-.008.042.03.03 0 0 0 .04.008 1.48 1.48 0 0 1 1.133.19 1.404 1.404 0 0 1 .014 2.348l-.048.031c-.009.008-.012.02-.007.028a.011.011 0 0 0 .005.005c.007.006.019.006.028-.001.402-.137.84-.075 1.191.153.162.104.306.244.42.416a1.405 1.405 0 0 1-.395 1.946z" fill="url(#buow6etccb)"/>
        <path d="m25.265 31.951-2.612 1.73-3.77 2.497a10.853 10.853 0 0 1-6.594-8.53l4.376-2.898 2.664-1.764a.666.666 0 0 1 .924.188l5.2 7.853a.667.667 0 0 1-.188.924z" fill="url(#w4j0iupb9c)"/>
    </g>
    <defs>
        <linearGradient id="buow6etccb" x1="20.566" y1="21.827" x2="35.853" y2="21.827" gradientUnits="userSpaceOnUse">
            <stop stop-color="#F5F6FF"/>
            <stop offset="1" stop-color="#B2B8FF"/>
        </linearGradient>
        <linearGradient id="w4j0iupb9c" x1="12.289" y1="29.527" x2="25.564" y2="29.527" gradientUnits="userSpaceOnUse">
            <stop stop-color="#F5F6FF"/>
            <stop offset="1" stop-color="#B2B8FF"/>
        </linearGradient>
        <clipPath id="a42q26rina">
            <path fill="#fff" transform="translate(12 13)" d="M0 0h24v24H0z"/>
        </clipPath>
    </defs>
</svg>
