<svg width="126" height="36" viewBox="0 0 126 36" fill="none" xmlns="http://www.w3.org/2000/svg">
    <path d="M120.538 35.999H5.153c-2.537 0-4.615-2.026-4.615-4.5v-27C.538 2.025 2.616 0 5.153 0h115.385c2.537 0 4.615 2.026 4.615 4.5v27c0 2.474-2.078 4.5-4.615 4.5z" fill="#000"/>
    <path d="M120.538.72c2.137 0 3.876 1.696 3.876 3.78v26.999c0 2.084-1.739 3.779-3.876 3.779H5.153c-2.136 0-3.875-1.695-3.875-3.779v-27C1.278 2.416 3.017.72 5.153.72h115.385zm0-.72H5.153C2.616 0 .538 2.024.538 4.5v26.999c0 2.474 2.078 4.5 4.615 4.5h115.385c2.537 0 4.615-2.026 4.615-4.5v-27c0-2.474-2.078-4.5-4.615-4.5z" fill="#A6A6A6"/>
    <path d="M9.479 6.784c-.271.277-.428.708-.428 1.266v19.903c0 .558.157.99.428 1.266l.067.06 11.439-11.148v-.263L9.545 6.719l-.066.065zM26.178 21.85l-3.809-3.719v-.263l3.814-3.718.085.048 4.516 2.505c1.289.711 1.289 1.881 0 2.597l-4.516 2.5-.09.05zM25.576 22.493l-3.899-3.801-11.506 11.22c.428.438 1.126.491 1.92.052l13.485-7.47zM25.576 13.506 12.09 6.035c-.794-.435-1.492-.382-1.92.057l11.506 11.215 3.899-3.801z" fill="#fff"/>
    <path d="M44.308 9.219c0 .751-.23 1.353-.685 1.802-.523.532-1.203.8-2.038.8-.797 0-1.478-.272-2.036-.81-.56-.544-.839-1.212-.839-2.012s.28-1.468.839-2.008c.558-.541 1.239-.813 2.036-.813.397 0 .776.08 1.137.228.36.15.653.352.865.602l-.482.475c-.37-.427-.875-.637-1.52-.637-.581 0-1.085.198-1.514.597-.423.4-.635.92-.635 1.556 0 .637.212 1.16.636 1.56.428.396.932.598 1.513.598.618 0 1.137-.203 1.547-.602.27-.264.423-.629.463-1.095h-2.01v-.65h2.682c.032.14.041.277.041.409zM48.563 6.964h-2.519v1.71h2.27v.65h-2.27v1.71h2.519v.663h-3.232V6.302h3.232v.662zM51.565 11.697h-.713V6.964h-1.545v-.662h3.804v.662h-1.546v4.733zM55.864 11.697V6.302h.712v5.395h-.712zM59.732 11.697h-.708V6.964h-1.55v-.662h3.809v.662h-1.551v4.733zM68.485 11.003c-.546.546-1.222.818-2.029.818-.81 0-1.487-.272-2.033-.818-.544-.545-.816-1.213-.816-2.004 0-.79.272-1.459.816-2.003.546-.546 1.222-.818 2.033-.818.802 0 1.478.272 2.024.822.55.55.82 1.213.82 2 0 .79-.27 1.458-.815 2.003zm-3.534-.452c.41.403.91.606 1.505.606.591 0 1.095-.203 1.501-.606.41-.404.618-.923.618-1.552s-.208-1.147-.618-1.551a2.052 2.052 0 0 0-1.5-.607c-.596 0-1.096.203-1.506.607-.41.404-.618.922-.618 1.551 0 .63.208 1.148.618 1.552zM70.3 11.697V6.302h.866l2.69 4.196h.032l-.031-1.037V6.3h.712v5.396h-.743l-2.818-4.403h-.031l.031 1.042v3.361h-.707z" fill="#fff" stroke="#fff" stroke-width=".037" stroke-miterlimit="10"/>
    <path d="M63.432 19.576c-2.169 0-3.94 1.61-3.94 3.829 0 2.201 1.772 3.827 3.94 3.827 2.172 0 3.943-1.625 3.943-3.827 0-2.22-1.77-3.829-3.943-3.829zm0 6.149c-1.19 0-2.214-.958-2.214-2.32 0-1.38 1.024-2.321 2.214-2.321s2.217.94 2.217 2.32c0 1.363-1.028 2.32-2.217 2.32zm-8.595-6.149c-2.173 0-3.94 1.61-3.94 3.829 0 2.201 1.767 3.827 3.94 3.827 2.171 0 3.939-1.625 3.939-3.827 0-2.22-1.768-3.829-3.94-3.829zm0 6.149c-1.191 0-2.218-.958-2.218-2.32 0-1.38 1.027-2.321 2.218-2.321 1.19 0 2.213.94 2.213 2.32 0 1.363-1.024 2.32-2.213 2.32zM44.609 20.75v1.627h3.984c-.116.909-.428 1.577-.906 2.043-.581.562-1.487 1.186-3.078 1.186-2.452 0-4.372-1.929-4.372-4.32 0-2.39 1.92-4.32 4.372-4.32 1.326 0 2.29.506 3.002 1.16l1.176-1.146c-.996-.927-2.32-1.64-4.178-1.64-3.362 0-6.188 2.668-6.188 5.947 0 3.278 2.826 5.945 6.188 5.945 1.817 0 3.182-.58 4.255-1.67 1.1-1.072 1.443-2.579 1.443-3.796a5.31 5.31 0 0 0-.09-1.016h-5.608zm41.822 1.261c-.324-.856-1.325-2.434-3.362-2.434-2.02 0-3.7 1.55-3.7 3.828 0 2.144 1.663 3.827 3.894 3.827a3.915 3.915 0 0 0 3.272-1.696l-1.338-.87c-.447.637-1.055 1.059-1.934 1.059-.874 0-1.5-.39-1.902-1.16l5.251-2.119-.18-.435zm-5.354 1.275a2.124 2.124 0 0 1 2.05-2.232c.686 0 1.268.334 1.462.812l-3.512 1.42zm-4.268 3.713h1.726V15.75H76.81V27zm-2.827-6.57h-.057c-.388-.447-1.128-.852-2.065-.852-1.966 0-3.763 1.682-3.763 3.84 0 2.146 1.797 3.815 3.763 3.815.937 0 1.677-.408 2.065-.87h.057v.55c0 1.463-.802 2.25-2.095 2.25-1.055 0-1.709-.743-1.979-1.367l-1.501.61c.433 1.015 1.578 2.264 3.48 2.264 2.024 0 3.731-1.161 3.731-3.986V19.81h-1.636v.62zm-1.974 5.296c-1.19 0-2.185-.971-2.185-2.308 0-1.349.996-2.333 2.185-2.333 1.172 0 2.097.984 2.097 2.333 0 1.337-.925 2.308-2.097 2.308zm22.505-9.976h-4.129V27h1.722v-4.262h2.407c1.912 0 3.787-1.35 3.787-3.495 0-2.144-1.88-3.493-3.787-3.493zm.045 5.423h-2.452v-3.858h2.452c1.285 0 2.019 1.04 2.019 1.928 0 .871-.734 1.93-2.02 1.93zm10.642-1.617c-1.244 0-2.538.536-3.07 1.723l1.528.624c.329-.625.933-.827 1.573-.827.893 0 1.799.523 1.812 1.447v.118c-.311-.176-.978-.436-1.798-.436-1.646 0-3.322.884-3.322 2.532 0 1.507 1.347 2.478 2.862 2.478 1.159 0 1.798-.51 2.2-1.102h.058v.87h1.663v-4.316c0-1.995-1.528-3.11-3.506-3.11zm-.208 6.165c-.563 0-1.348-.272-1.348-.953 0-.87.979-1.205 1.826-1.205.758 0 1.113.163 1.573.378-.135 1.042-1.054 1.78-2.051 1.78zm9.772-5.918-1.979 4.876h-.059l-2.046-4.877h-1.856l3.074 6.816-1.754 3.792h1.799l4.736-10.607h-1.915zm-15.518 7.197h1.726V15.75h-1.726V27z" fill="#fff"/>
</svg>
