<svg width="41" height="41" viewBox="0 0 41 41" fill="none" xmlns="http://www.w3.org/2000/svg">
<path d="M0.414062 20.3919C0.414062 9.57635 9.36837 0.808594 20.4141 0.808594C31.4598 0.808594 40.4141 9.57635 40.4141 20.3919V21.2253C40.4141 32.0408 31.4598 40.8086 20.4141 40.8086C9.36837 40.8086 0.414062 32.0408 0.414062 21.2253V20.3919Z" fill="white"/>
<path d="M24.1821 28.493C23.1399 27.79 22.8866 26.4062 23.6164 25.4022L29.4303 17.4034C30.1601 16.3994 31.5966 16.1554 32.6388 16.8584C33.681 17.5615 33.9343 18.9453 33.2045 19.9493L27.3906 27.948C26.6608 28.9521 25.2243 29.1961 24.1821 28.493Z" fill="#0068E5"/>
<path d="M16.5628 26.5831C15.5206 25.88 15.2673 24.4962 15.9971 23.4922L21.811 15.4935C22.5408 14.4895 23.9772 14.2455 25.0194 14.9485C26.0617 15.6515 26.3149 17.0353 25.5852 18.0393L19.7712 26.0381C19.0415 27.0421 17.605 27.2861 16.5628 26.5831Z" fill="#0068E5"/>
<path d="M8.94349 24.6729C7.90128 23.9698 7.64799 22.586 8.37776 21.582L14.1917 13.5833C14.9215 12.5792 16.3579 12.3352 17.4001 13.0383C18.4423 13.7413 18.6956 15.1251 17.9659 16.1291L12.1519 24.1279C11.4222 25.1319 9.9857 25.3759 8.94349 24.6729Z" fill="#0068E5"/>
</svg>
