<svg width="35" height="35" viewBox="0 0 35 35" fill="none" xmlns="http://www.w3.org/2000/svg">
<g clip-path="url(#clip0_1598_19029)">
<path d="M31.2288 27.4577C30.5609 27.4577 29.9336 27.6329 29.389 27.9388L25.1219 23.6715C26.4905 21.9845 27.3119 19.8365 27.3119 17.5C27.3119 15.1635 26.4904 13.0154 25.1219 11.3284L27.4916 8.95856C28.2527 9.45137 29.1584 9.73889 30.1306 9.73889C32.8156 9.73889 35.0001 7.55446 35.0001 4.86944C35.0001 2.18442 32.8156 0 30.1306 0C27.4455 0 25.2611 2.18442 25.2611 4.86944C25.2611 5.84165 25.5486 6.74748 26.0415 7.50846L23.6718 9.87834C21.9848 8.50965 19.8367 7.68811 17.5001 7.68811C15.1634 7.68811 13.0154 8.50965 11.3283 9.87834L7.06125 5.61114C7.36709 5.06646 7.54236 4.43905 7.54236 3.77111C7.54229 1.69176 5.85061 0 3.77118 0C1.69176 0 0 1.69176 0 3.77118C0 5.85061 1.69176 7.5423 3.77118 7.5423C4.43898 7.5423 5.06639 7.36709 5.61101 7.06125L9.87813 11.3285C8.50951 13.0155 7.68811 15.1635 7.68811 17.5C7.68811 19.8365 8.50951 21.9845 9.87813 23.6715L7.50832 26.0414C6.74734 25.5486 5.84158 25.261 4.86938 25.261C2.18442 25.261 0 27.4455 0 30.1306C0 32.8156 2.18442 35 4.86944 35C7.55446 35 9.73889 32.8156 9.73889 30.1306C9.73889 29.1583 9.45137 28.2525 8.9585 27.4915L11.3282 25.1217C13.0152 26.4904 15.1633 27.3119 17.5 27.3119C19.8367 27.3119 21.9847 26.4904 23.6718 25.1217L27.9388 29.3889C27.633 29.9335 27.4577 30.5609 27.4577 31.2289C27.4577 33.3083 29.1494 35.0001 31.2288 35.0001C33.3082 35.0001 35 33.3082 35 31.2288C35 29.1494 33.3082 27.4577 31.2288 27.4577ZM17.5 18.6713C16.2485 18.6713 15.2305 17.6531 15.2305 16.4017C15.2305 15.1504 16.2486 14.1322 17.5 14.1322C18.7514 14.1322 19.7695 15.1504 19.7695 16.4017C19.7695 17.6531 18.7515 18.6713 17.5 18.6713ZM17.5011 20.7221C20.2955 20.7221 21.4972 22.9283 21.794 23.9617C20.5635 24.7821 19.0867 25.261 17.5001 25.261C15.9134 25.261 14.4367 24.7821 13.2061 23.9617C13.5053 22.9199 14.7164 20.7221 17.5011 20.7221ZM30.1306 2.05078C31.6848 2.05078 32.9492 3.31522 32.9492 4.86944C32.9492 6.42366 31.6848 7.68811 30.1306 7.68811C28.5763 7.68811 27.3119 6.42366 27.3119 4.86944C27.3119 3.31522 28.5763 2.05078 30.1306 2.05078ZM2.05078 3.77118C2.05078 2.82256 2.82256 2.05078 3.77118 2.05078C4.7198 2.05078 5.49151 2.82256 5.49151 3.77118C5.49151 4.7198 4.7198 5.49151 3.77118 5.49151C2.82256 5.49151 2.05078 4.7198 2.05078 3.77118ZM17.5 9.73895C21.7795 9.73895 25.261 13.2206 25.261 17.5C25.261 19.402 24.5729 21.1459 23.4332 22.4971C23.1524 21.8787 22.3693 20.3991 20.5714 19.4365C21.343 18.6557 21.8203 17.5836 21.8203 16.4017C21.8203 14.0195 19.8822 12.0814 17.5 12.0814C15.1178 12.0814 13.1797 14.0196 13.1797 16.4017C13.1797 17.5835 13.657 18.6556 14.4285 19.4364C12.6311 20.3989 11.8479 21.8779 11.5668 22.4971C10.4271 21.1459 9.73895 19.402 9.73895 17.5C9.73895 13.2205 13.2205 9.73895 17.5 9.73895ZM4.86944 32.9492C3.31522 32.9492 2.05078 31.6848 2.05078 30.1306C2.05078 28.5763 3.31522 27.3119 4.86944 27.3119C6.42366 27.3119 7.68811 28.5763 7.68811 30.1306C7.68811 31.6848 6.42373 32.9492 4.86944 32.9492ZM31.2288 32.9492C30.2802 32.9492 29.5085 32.1774 29.5085 31.2288C29.5085 30.2802 30.2802 29.5085 31.2288 29.5085C32.1774 29.5085 32.9492 30.2802 32.9492 31.2288C32.9492 32.1774 32.1774 32.9492 31.2288 32.9492Z" fill="#000D21"/>
</g>
<defs>
<clipPath id="clip0_1598_19029">
<rect width="35" height="35" fill="white"/>
</clipPath>
</defs>
</svg>
