<svg width="200" height="41" viewBox="0 0 200 41" fill="none" xmlns="http://www.w3.org/2000/svg">
<path d="M47.9015 31.5905C46.7008 31.5905 45.64 31.4342 44.719 31.1217C43.8144 30.8092 43.0496 30.3487 42.4247 29.7402C41.7997 29.1152 41.3309 28.3422 41.0184 27.4212C40.7059 26.5001 40.5497 25.4311 40.5497 24.214V15.3574C40.5497 14.8146 40.6813 14.4117 40.9444 14.1485C41.224 13.8854 41.6188 13.7538 42.1286 13.7538C42.6385 13.7538 43.025 13.8854 43.2881 14.1485C43.5677 14.4117 43.7075 14.8146 43.7075 15.3574V24.1893C43.7075 25.7518 44.0611 26.9278 44.7683 27.7172C45.492 28.4902 46.5364 28.8767 47.9015 28.8767C49.2666 28.8767 50.3027 28.4902 51.0099 27.7172C51.7172 26.9278 52.0708 25.7518 52.0708 24.1893V15.3574C52.0708 14.8146 52.2023 14.4117 52.4655 14.1485C52.7451 13.8854 53.1398 13.7538 53.6497 13.7538C54.1431 13.7538 54.5214 13.8854 54.7845 14.1485C55.0641 14.4117 55.2039 14.8146 55.2039 15.3574V24.214C55.2039 25.8258 54.9243 27.1827 54.3651 28.2846C53.8224 29.3866 53.0082 30.2171 51.9227 30.7763C50.8372 31.3191 49.4968 31.5905 47.9015 31.5905ZM64.8816 31.5905C64.158 31.5905 63.4343 31.5329 62.7106 31.4178C61.987 31.3191 61.3044 31.1628 60.663 30.949C60.0216 30.7188 59.4459 30.4392 58.9361 30.1102C58.64 29.9129 58.4344 29.6744 58.3193 29.3948C58.2042 29.1152 58.1631 28.8438 58.196 28.5807C58.2453 28.3011 58.3522 28.0626 58.5167 27.8652C58.6976 27.6514 58.9196 27.5198 59.1828 27.4705C59.4459 27.4212 59.7337 27.4952 60.0462 27.6925C60.7699 28.1202 61.5347 28.4326 62.3406 28.63C63.1465 28.8274 63.9935 28.9261 64.8816 28.9261C66.1809 28.9261 67.1266 28.7122 67.7187 28.2846C68.3108 27.8406 68.6068 27.2731 68.6068 26.5824C68.6068 26.0067 68.393 25.5544 67.9654 25.2255C67.5542 24.8966 66.8388 24.6252 65.8191 24.4114L63.1054 23.844C61.5429 23.515 60.3752 22.9641 59.6022 22.191C58.8456 21.4016 58.4673 20.3654 58.4673 19.0826C58.4673 18.2767 58.6318 17.5448 58.9607 16.8869C59.2897 16.229 59.7502 15.6616 60.3423 15.1847C60.9508 14.7077 61.6662 14.3459 62.4886 14.0992C63.3274 13.836 64.2484 13.7044 65.2517 13.7044C66.2385 13.7044 67.176 13.8278 68.0641 14.0745C68.9522 14.3212 69.7499 14.683 70.4571 15.16C70.7203 15.3409 70.893 15.5629 70.9752 15.8261C71.0739 16.0892 71.0985 16.3524 71.0492 16.6155C70.9999 16.8622 70.8847 17.0761 70.7038 17.257C70.5229 17.4379 70.2927 17.5448 70.0131 17.5777C69.7499 17.6106 69.4456 17.5283 69.1003 17.331C68.4917 16.9856 67.875 16.7389 67.25 16.5909C66.625 16.4429 65.9507 16.3688 65.227 16.3688C64.4704 16.3688 63.8208 16.4757 63.278 16.6896C62.7353 16.9034 62.3159 17.2076 62.0199 17.6024C61.7403 17.9806 61.6005 18.4329 61.6005 18.9592C61.6005 19.5513 61.7978 20.0283 62.1925 20.3901C62.5873 20.7355 63.2616 21.0069 64.2155 21.2042L66.9046 21.7716C68.5328 22.117 69.7417 22.6598 70.5311 23.3999C71.337 24.14 71.74 25.1268 71.74 26.3603C71.74 27.1498 71.5755 27.8652 71.2466 28.5067C70.9341 29.1481 70.4736 29.6991 69.865 30.1596C69.2729 30.6201 68.5575 30.9737 67.7187 31.2204C66.8799 31.4671 65.9342 31.5905 64.8816 31.5905ZM76.1278 31.3438C75.5851 31.3438 75.1657 31.204 74.8696 30.9244C74.59 30.6283 74.4502 30.2089 74.4502 29.6662V15.6287C74.4502 15.086 74.59 14.6748 74.8696 14.3952C75.1657 14.0992 75.5851 13.9511 76.1278 13.9511H84.9352C85.3463 13.9511 85.6588 14.058 85.8726 14.2719C86.1029 14.4857 86.218 14.7899 86.218 15.1847C86.218 15.5958 86.1029 15.9165 85.8726 16.1468C85.6588 16.3606 85.3463 16.4675 84.9352 16.4675H77.4847V21.2536H84.3924C84.82 21.2536 85.1407 21.3605 85.3545 21.5743C85.5684 21.7881 85.6753 22.1006 85.6753 22.5118C85.6753 22.9229 85.5684 23.2354 85.3545 23.4492C85.1407 23.663 84.82 23.7699 84.3924 23.7699H77.4847V28.8274H84.9352C85.3463 28.8274 85.6588 28.9343 85.8726 29.1481C86.1029 29.3619 86.218 29.6744 86.218 30.0856C86.218 30.4967 86.1029 30.8092 85.8726 31.023C85.6588 31.2368 85.3463 31.3438 84.9352 31.3438H76.1278ZM90.7495 31.5411C90.2396 31.5411 89.8449 31.4013 89.5653 31.1217C89.3021 30.8257 89.1706 30.4227 89.1706 29.9129V15.5547C89.1706 15.0284 89.3104 14.6337 89.5899 14.3705C89.8695 14.0909 90.2643 13.9511 90.7741 13.9511H96.7197C98.6275 13.9511 100.1 14.4117 101.136 15.3327C102.172 16.2373 102.69 17.5119 102.69 19.1566C102.69 20.2256 102.451 21.1467 101.974 21.9197C101.514 22.6927 100.84 23.2848 99.9515 23.6959C99.0634 24.1071 97.9861 24.3127 96.7197 24.3127L96.9417 23.9426H97.7558C98.4302 23.9426 99.014 24.1071 99.5074 24.436C100.017 24.765 100.461 25.2831 100.84 25.9903L102.69 29.4195C102.887 29.7648 102.978 30.102 102.961 30.4309C102.945 30.7599 102.821 31.0313 102.591 31.2451C102.361 31.4424 102.024 31.5411 101.58 31.5411C101.136 31.5411 100.774 31.4507 100.494 31.2697C100.215 31.0724 99.9679 30.7763 99.7541 30.3816L97.2624 25.7929C96.9664 25.2337 96.6128 24.8637 96.2016 24.6828C95.8069 24.4854 95.297 24.3867 94.672 24.3867H92.3284V29.9129C92.3284 30.4227 92.1968 30.8257 91.9336 31.1217C91.6705 31.4013 91.2758 31.5411 90.7495 31.5411ZM92.3284 22.043H96.1769C97.3118 22.043 98.167 21.8128 98.7427 21.3523C99.3347 20.8753 99.6308 20.1681 99.6308 19.2306C99.6308 18.3096 99.3347 17.6188 98.7427 17.1583C98.167 16.6813 97.3118 16.4429 96.1769 16.4429H92.3284V22.043ZM107.563 31.5411C107.103 31.5411 106.749 31.4095 106.503 31.1464C106.256 30.8832 106.133 30.5214 106.133 30.0609V15.234C106.133 14.757 106.264 14.3952 106.527 14.1485C106.79 13.8854 107.152 13.7538 107.613 13.7538C108.024 13.7538 108.345 13.836 108.575 14.0005C108.822 14.1485 109.044 14.4117 109.241 14.7899L115.335 26.0643H114.545L120.639 14.7899C120.836 14.4117 121.05 14.1485 121.28 14.0005C121.51 13.836 121.831 13.7538 122.242 13.7538C122.703 13.7538 123.056 13.8854 123.303 14.1485C123.55 14.3952 123.673 14.757 123.673 15.234V30.0609C123.673 30.5214 123.55 30.8832 123.303 31.1464C123.073 31.4095 122.719 31.5411 122.242 31.5411C121.782 31.5411 121.428 31.4095 121.182 31.1464C120.935 30.8832 120.811 30.5214 120.811 30.0609V18.6385H121.354L116.173 28.0873C116.009 28.3669 115.836 28.5724 115.655 28.704C115.474 28.8356 115.228 28.9014 114.915 28.9014C114.603 28.9014 114.348 28.8356 114.15 28.704C113.953 28.556 113.78 28.3504 113.632 28.0873L108.402 18.6138H108.994V30.0609C108.994 30.5214 108.871 30.8832 108.624 31.1464C108.394 31.4095 108.04 31.5411 107.563 31.5411ZM127.674 31.5411C127.279 31.5411 126.958 31.4507 126.712 31.2697C126.481 31.0888 126.342 30.8503 126.292 30.5543C126.243 30.2418 126.301 29.8964 126.465 29.5181L132.978 15.086C133.192 14.609 133.447 14.2719 133.743 14.0745C134.055 13.8607 134.409 13.7538 134.804 13.7538C135.182 13.7538 135.519 13.8607 135.815 14.0745C136.128 14.2719 136.391 14.609 136.605 15.086L143.142 29.5181C143.323 29.8964 143.389 30.2418 143.34 30.5543C143.29 30.8668 143.15 31.1135 142.92 31.2944C142.69 31.4589 142.386 31.5411 142.007 31.5411C141.547 31.5411 141.185 31.4342 140.922 31.2204C140.675 30.9901 140.453 30.6448 140.256 30.1842L138.652 26.459L139.984 27.3225H129.573L130.906 26.459L129.327 30.1842C129.113 30.6612 128.891 31.0066 128.661 31.2204C128.43 31.4342 128.101 31.5411 127.674 31.5411ZM134.754 17.3803L131.3 25.5956L130.659 24.8061H138.899L138.282 25.5956L134.804 17.3803H134.754ZM151.297 31.5411C150.853 31.5411 150.483 31.4424 150.187 31.2451C149.908 31.0313 149.677 30.7188 149.497 30.3076L143.058 15.8508C142.877 15.4396 142.827 15.0778 142.91 14.7653C142.992 14.4528 143.164 14.2061 143.428 14.0252C143.691 13.8442 144.003 13.7538 144.365 13.7538C144.842 13.7538 145.196 13.8607 145.426 14.0745C145.673 14.2719 145.878 14.5761 146.043 14.9873L151.89 28.5313H150.829L156.651 14.9626C156.832 14.5679 157.046 14.2719 157.292 14.0745C157.539 13.8607 157.884 13.7538 158.329 13.7538C158.69 13.7538 158.986 13.8442 159.217 14.0252C159.463 14.2061 159.62 14.4528 159.685 14.7653C159.751 15.0778 159.694 15.4396 159.513 15.8508L153.074 30.3076C152.893 30.7188 152.663 31.0313 152.383 31.2451C152.12 31.4424 151.758 31.5411 151.297 31.5411ZM163.655 31.3438C163.112 31.3438 162.692 31.204 162.396 30.9244C162.117 30.6283 161.977 30.2089 161.977 29.6662V15.6287C161.977 15.086 162.117 14.6748 162.396 14.3952C162.692 14.0992 163.112 13.9511 163.655 13.9511H172.462C172.873 13.9511 173.186 14.058 173.399 14.2719C173.63 14.4857 173.745 14.7899 173.745 15.1847C173.745 15.5958 173.63 15.9165 173.399 16.1468C173.186 16.3606 172.873 16.4675 172.462 16.4675H165.011V21.2536H171.919C172.347 21.2536 172.668 21.3605 172.881 21.5743C173.095 21.7881 173.202 22.1006 173.202 22.5118C173.202 22.9229 173.095 23.2354 172.881 23.4492C172.668 23.663 172.347 23.7699 171.919 23.7699H165.011V28.8274H172.462C172.873 28.8274 173.186 28.9343 173.399 29.1481C173.63 29.3619 173.745 29.6744 173.745 30.0856C173.745 30.4967 173.63 30.8092 173.399 31.023C173.186 31.2368 172.873 31.3438 172.462 31.3438H163.655ZM178.178 31.5411C177.701 31.5411 177.331 31.4095 177.067 31.1464C176.821 30.8832 176.697 30.505 176.697 30.0116V15.3327C176.697 14.8228 176.821 14.4363 177.067 14.1732C177.331 13.8936 177.668 13.7538 178.079 13.7538C178.457 13.7538 178.737 13.8278 178.918 13.9758C179.115 14.1074 179.345 14.3376 179.608 14.6666L189.057 26.9278H188.416V15.2587C188.416 14.7817 188.539 14.4117 188.786 14.1485C189.049 13.8854 189.419 13.7538 189.896 13.7538C190.373 13.7538 190.735 13.8854 190.981 14.1485C191.228 14.4117 191.352 14.7817 191.352 15.2587V30.0609C191.352 30.5214 191.236 30.8832 191.006 31.1464C190.776 31.4095 190.463 31.5411 190.069 31.5411C189.69 31.5411 189.386 31.4671 189.156 31.3191C188.942 31.1711 188.704 30.9326 188.44 30.6036L179.016 18.3425H179.633V30.0116C179.633 30.505 179.51 30.8832 179.263 31.1464C179.016 31.4095 178.655 31.5411 178.178 31.5411ZM196.336 31.4671C195.777 31.4671 195.325 31.2944 194.979 30.949C194.65 30.6036 194.486 30.1596 194.486 29.6168C194.486 29.0905 194.65 28.6629 194.979 28.334C195.325 27.9886 195.777 27.8159 196.336 27.8159C196.912 27.8159 197.356 27.9886 197.668 28.334C197.997 28.6629 198.162 29.0905 198.162 29.6168C198.162 30.1596 197.997 30.6036 197.668 30.949C197.356 31.2944 196.912 31.4671 196.336 31.4671Z" fill="#212121"/>
<path d="M16.3889 19.54H16.3887C13.9519 19.54 11.9766 21.5154 11.9766 23.9522V28.3645C11.9766 30.8013 13.9519 32.7767 16.3887 32.7767H16.3889C18.8256 32.7767 20.801 30.8013 20.801 28.3645V23.9522C20.801 21.5154 18.8256 19.54 16.3889 19.54Z" fill="#9F72FC"/>
<path d="M4.4123 6.61816H4.41209C1.97536 6.61816 0 8.59355 0 11.0303V28.3642C0 30.801 1.97536 32.7764 4.41209 32.7764H4.4123C6.84904 32.7764 8.8244 30.801 8.8244 28.3642V11.0303C8.8244 8.59355 6.84904 6.61816 4.4123 6.61816Z" fill="#FD60B7"/>
<path d="M28.3654 0H28.3652C25.9285 0 23.9531 1.97538 23.9531 4.41214V28.3644C23.9531 30.8011 25.9285 32.7765 28.3652 32.7765H28.3654C30.8022 32.7765 32.7775 30.8011 32.7775 28.3644V4.41214C32.7775 1.97538 30.8022 0 28.3654 0Z" fill="#5ABBE5"/>
<path style="mix-blend-mode:overlay" d="M28.3654 0H28.3652C25.9285 0 23.9531 1.97538 23.9531 4.41214V28.3644C23.9531 30.8011 25.9285 32.7765 28.3652 32.7765H28.3654C30.8022 32.7765 32.7775 30.8011 32.7775 28.3644V4.41214C32.7775 1.97538 30.8022 0 28.3654 0Z" fill="url(#paint0_linear_290_139)"/>
<path style="mix-blend-mode:overlay" d="M16.3889 19.54H16.3887C13.9519 19.54 11.9766 21.5154 11.9766 23.9522V28.3645C11.9766 30.8013 13.9519 32.7767 16.3887 32.7767H16.3889C18.8256 32.7767 20.801 30.8013 20.801 28.3645V23.9522C20.801 21.5154 18.8256 19.54 16.3889 19.54Z" fill="url(#paint1_linear_290_139)"/>
<path style="mix-blend-mode:overlay" d="M4.4123 6.61816H4.41209C1.97536 6.61816 0 8.59355 0 11.0303V28.3642C0 30.801 1.97536 32.7764 4.41209 32.7764H4.4123C6.84904 32.7764 8.8244 30.801 8.8244 28.3642V11.0303C8.8244 8.59355 6.84904 6.61816 4.4123 6.61816Z" fill="url(#paint2_linear_290_139)"/>
<defs>
<linearGradient id="paint0_linear_290_139" x1="17.8819" y1="26.7784" x2="40.2262" y2="25.1732" gradientUnits="userSpaceOnUse">
<stop stop-color="#808080"/>
<stop offset="0.192" stop-color="#848484"/>
<stop offset="0.392" stop-color="#909090"/>
<stop offset="0.595" stop-color="#A5A5A5"/>
<stop offset="0.798" stop-color="#C2C2C2"/>
<stop offset="0.997" stop-color="#E6E6E6"/>
</linearGradient>
<linearGradient id="paint1_linear_290_139" x1="10.8735" y1="31.678" x2="24.1814" y2="25.7587" gradientUnits="userSpaceOnUse">
<stop stop-color="#808080"/>
<stop offset="0.192" stop-color="#848484"/>
<stop offset="0.392" stop-color="#909090"/>
<stop offset="0.595" stop-color="#A5A5A5"/>
<stop offset="0.798" stop-color="#C2C2C2"/>
<stop offset="0.997" stop-color="#E6E6E6"/>
</linearGradient>
<linearGradient id="paint2_linear_290_139" x1="-4.4122" y1="28.4079" x2="14.9493" y2="26.2329" gradientUnits="userSpaceOnUse">
<stop stop-color="#808080"/>
<stop offset="0.192" stop-color="#848484"/>
<stop offset="0.392" stop-color="#909090"/>
<stop offset="0.595" stop-color="#A5A5A5"/>
<stop offset="0.798" stop-color="#C2C2C2"/>
<stop offset="0.997" stop-color="#E6E6E6"/>
</linearGradient>
</defs>
</svg>
