<svg width="31" height="31" viewBox="0 0 31 31" fill="none" xmlns="http://www.w3.org/2000/svg">
<path d="M29.1231 27.3672H1.87696V7.38672H29.1231V27.3672ZM30.0297 5.44922H0.970271C0.24492 5.44922 -0.187748 4.6408 0.214586 4.03721L2.63646 0.404393C2.8049 0.151791 3.0885 0 3.39215 0H27.6079C27.9115 0 28.1951 0.151791 28.3636 0.404393L30.7854 4.03721C31.1878 4.6408 30.7551 5.44922 30.0297 5.44922ZM30.0297 5.44922H0.970271C0.24492 5.44922 -0.187748 4.6408 0.214586 4.03721L2.63646 0.404393C2.8049 0.151791 3.0885 0 3.39215 0H27.6079C27.9115 0 28.1951 0.151791 28.3636 0.404393L30.7854 4.03721C31.1878 4.6408 30.7551 5.44922 30.0297 5.44922Z" fill="url(#paint0_linear_2580_25992)"/>
<path d="M24.582 14.6523C25.0836 14.6523 25.4902 15.059 25.4902 15.5605V22.8262C25.4902 23.3277 25.0836 23.7344 24.582 23.7344H16.1055C15.6039 23.7344 15.1973 23.3277 15.1973 22.8262V15.5605C15.1973 15.059 15.6039 14.6523 16.1055 14.6523H24.582ZM1.99048 10.293C3.05635 10.293 3.92041 9.4289 3.92041 8.36304C3.92041 9.4289 4.78447 10.293 5.85034 10.293C6.91621 10.293 7.78027 9.4289 7.78027 8.36304C7.78027 9.4289 8.64434 10.293 9.71021 10.293C10.7761 10.293 11.6401 9.4289 11.6401 8.36304C11.6401 9.4289 12.5042 10.293 13.5701 10.293C14.6359 10.293 15.5 9.4289 15.5 8.36304C15.5 9.4289 16.3641 10.293 17.4299 10.293C18.4958 10.293 19.3599 9.4289 19.3599 8.36304C19.3599 9.4289 20.2239 10.293 21.2898 10.293C22.3557 10.293 23.2197 9.4289 23.2197 8.36304C23.2197 9.4289 24.0838 10.293 25.1497 10.293C26.2155 10.293 27.0796 9.4289 27.0796 8.36304C27.0796 9.4289 27.9437 10.293 29.0095 10.293C30.0754 10.293 30.9395 9.4289 30.9395 8.36304V4.54102H0.0605469V8.36304C0.0605469 9.4289 0.924611 10.293 1.99048 10.293ZM30.0918 26.7617H13.3809V15.5605C13.3809 15.059 12.9742 14.6523 12.4727 14.6523H6.41797C5.9164 14.6523 5.50977 15.059 5.50977 15.5605V26.7617H0.908203C0.406633 26.7617 0 27.1684 0 27.6699V30.0918C0 30.5934 0.406633 31 0.908203 31H30.0918C30.5934 31 31 30.5934 31 30.0918V27.6699C31 27.1684 30.5934 26.7617 30.0918 26.7617Z" fill="url(#paint1_linear_2580_25992)"/>
<defs>
<linearGradient id="paint0_linear_2580_25992" x1="15.5" y1="27.3672" x2="15.5" y2="0" gradientUnits="userSpaceOnUse">
<stop stop-color="#ADDCFF"/>
<stop offset="0.5028" stop-color="#EAF6FF"/>
<stop offset="1" stop-color="#EAF6FF"/>
</linearGradient>
<linearGradient id="paint1_linear_2580_25992" x1="15.5" y1="31" x2="15.5" y2="4.54102" gradientUnits="userSpaceOnUse">
<stop stop-color="#3386EA"/>
<stop offset="1" stop-color="#8ABAF3"/>
</linearGradient>
</defs>
</svg>
